<?xml version="1.0" encoding="utf-8"?>
<!-- Generator: Adobe Illustrator 18.1.1, SVG Export Plug-In . SVG Version: 6.00 Build 0)  -->
<!DOCTYPE svg PUBLIC "-//W3C//DTD SVG 1.1//EN" "http://www.w3.org/Graphics/SVG/1.1/DTD/svg11.dtd">
<svg version="1.1" id="Layer_1" xmlns:sketch="http://www.bohemiancoding.com/sketch/ns"
	 xmlns="http://www.w3.org/2000/svg" xmlns:xlink="http://www.w3.org/1999/xlink" x="0px" y="0px" viewBox="-283 375 44 44"
	 enable-background="new -283 375 44 44" xml:space="preserve">
<path d="M-243,375h-36c-2.2,0-4,1.7-4,3v37c0,2.8,1.4,4,4,4h36c2.6,0,4-1.4,4-4v-36C-239,376.9-240,375-243,375z M-249.3,383.7
	c2.3,0,4.1,1.8,4.1,4.1c0,2.3-1.9,4.1-4.1,4.1s-4.1-1.8-4.1-4.1C-253.4,385.6-251.6,383.7-249.3,383.7z M-247.8,415h-6h-24.5l14-22
	l10.2,16h1l-3.2-5l3-5l10,16H-247.8z"/>
</svg>
