<?xml version="1.0" encoding="utf-8"?>
<!-- Generator: Adobe Illustrator 18.1.1, SVG Export Plug-In . SVG Version: 6.00 Build 0)  -->
<!DOCTYPE svg PUBLIC "-//W3C//DTD SVG 1.1//EN" "http://www.w3.org/Graphics/SVG/1.1/DTD/svg11.dtd">
<svg version="1.1" id="Layer_1" xmlns="http://www.w3.org/2000/svg" xmlns:xlink="http://www.w3.org/1999/xlink" x="0px" y="0px"
	 viewBox="-277 368.3 56.7 56.7" enable-background="new -277 368.3 56.7 56.7" xml:space="preserve">
<g>
	<path fill="#888888" d="M-248.7,373.5c-13.6,0-24.6,11-24.6,24.6c0,10.1,6.1,18.7,14.7,22.6c-0.1-1.7,0-3.8,0.4-5.7
		c0.5-2,3.2-13.4,3.2-13.4s-0.8-1.6-0.8-3.9c0-3.6,2.1-6.4,4.7-6.4c2.2,0,3.3,1.7,3.3,3.7c0,2.3-1.4,5.6-2.2,8.7
		c-0.6,2.6,1.3,4.7,3.9,4.7c4.7,0,7.8-6,7.8-13.1c0-5.4-3.6-9.4-10.2-9.4c-7.5,0-12.1,5.6-12.1,11.8c0,2.1,0.6,3.7,1.6,4.8
		c0.5,0.5,0.5,0.8,0.4,1.4c-0.1,0.5-0.4,1.5-0.5,2c-0.2,0.6-0.7,0.8-1.2,0.6c-3.4-1.4-5-5.2-5-9.4c0-7,5.9-15.4,17.6-15.4
		c9.4,0,15.6,6.8,15.6,14.1c0,9.7-5.4,16.9-13.3,16.9c-2.7,0-5.2-1.4-6-3.1c0,0-1.4,5.7-1.7,6.8c-0.5,1.9-1.5,3.8-2.5,5.3
		c2.2,0.7,4.6,1,7,1c13.6,0,24.6-11,24.6-24.6C-224,384.5-235.1,373.5-248.7,373.5z"/>
</g>
</svg>
