<svg viewBox="0 0 109 33" xmlns="http://www.w3.org/2000/svg"><g fill="#636363" fill-rule="evenodd"><path d="m8.358 28.04h.77l2.03-4.935h-.931l-1.47 3.766-1.477-3.766h-.952l2.03 4.935m5.44-.035h3.668v-.77h-2.807v-1.309h2.457v-.777h-2.457v-1.274h2.772v-.77h-3.633v4.9m6.49 0h.861v-1.708h1.078l1.204 1.708h1.022l-1.323-1.855c.679-.196 1.162-.679 1.162-1.484v-.014c0-.427-.147-.791-.406-1.057-.315-.308-.798-.49-1.414-.49h-2.184v4.9m.861-2.471v-1.645h1.253c.637 0 1.015.287 1.015.812v.014c0 .497-.392.819-1.01.819h-1.26m5.58 2.471h.882l.504-1.183h2.317l.497 1.183h.91l-2.156-4.935h-.798l-2.156 4.935m1.701-1.946l.84-1.96.847 1.96h-1.687m6.05 1.946h.847v-3.486l2.702 3.486h.721v-4.9h-.847v3.388l-2.625-3.388h-.798v4.9m9.05.07c1.029 0 1.75-.546 1.75-1.463v-.014c0-.812-.532-1.183-1.568-1.435-.945-.224-1.169-.392-1.169-.77v-.014c0-.322.294-.581.798-.581.448 0 .889.175 1.33.504l.462-.651c-.497-.399-1.064-.616-1.778-.616-.973 0-1.673.581-1.673 1.421v.014c0 .903.588 1.211 1.631 1.463.91.21 1.106.399 1.106.749v.014c0 .364-.336.616-.868.616-.602 0-1.078-.231-1.547-.637l-.518.616c.588.525 1.295.784 2.044.784m5.664-.07h.861v-4.102h1.561v-.798h-3.983v.798h1.561v4.102m4.075 0h.882l.504-1.183h2.317l.497 1.183h.91l-2.156-4.935h-.798l-2.156 4.935m1.701-1.946l.84-1.96.847 1.96h-1.687m6.05 1.946h3.437v-.784h-2.576v-4.116h-.861v4.9m6.644 0h.861v-4.102h1.561v-.798h-3.983v.798h1.561v4.102m7.127.077c1.281 0 2.107-.735 2.107-2.198v-2.779h-.861v2.821c0 .903-.469 1.358-1.232 1.358-.77 0-1.239-.483-1.239-1.393v-2.786h-.861v2.821c0 1.421.812 2.156 2.086 2.156m5.09-.077h.847v-3.486l2.702 3.486h.721v-4.9h-.847v3.388l-2.625-3.388h-.798v4.9m9.654.084c.868 0 1.561-.35 2.044-.763v-2.058h-2.086v.756h1.253v.91c-.301.224-.721.371-1.183.371-1 0-1.666-.742-1.666-1.75v-.014c0-.938.686-1.722 1.589-1.722.623 0 .994.203 1.372.518l.546-.651c-.504-.427-1.029-.665-1.883-.665-1.477 0-2.527 1.162-2.527 2.534v.014c0 1.428 1.01 2.52 2.541 2.52m4.964-.084h3.668v-.77h-2.807v-1.309h2.457v-.777h-2.457v-1.274h2.772v-.77h-3.633v4.9m6.49 0h.847v-3.486l2.702 3.486h.721v-4.9h-.847v3.388l-2.625-3.388h-.798v4.9"/><path d="m11.319.806l-4.159 6.615-4.115-6.615h-3.045l5.837 9.05v5.89h2.605v-5.954l5.837-8.984z"/><path d="m17.933 6.504c-2.037 0-3.339 1.622-3.339 3.607 0 2.01 1.407 3.649 3.381 3.649 2.058 0 3.36-1.622 3.36-3.607 0-2.01-1.407-3.649-3.402-3.649m0 9.496c-3.381 0-5.88-2.624-5.88-5.847 0-3.244 2.52-5.911 5.922-5.911 3.402 0 5.901 2.625 5.901 5.869 0 3.223-2.52 5.89-5.943 5.89"/><path d="m32.905 4.476h2.541v11.268h-2.541v-1.75c-.714 1.067-1.743 1.985-3.465 1.985-2.499 0-3.948-1.707-3.948-4.332v-7.17h2.541v6.402c0 1.75.861 2.753 2.373 2.753 1.469 0 2.499-1.045 2.499-2.795v-6.359"/><path d="m48.529.806h2.791l-6.11 15.05h-2.267l-6.111-15.05h2.856l4.432 11.481z"/><path d="m58.57 9.32c-.168-1.665-1.134-2.966-2.814-2.966-1.554 0-2.645 1.216-2.877 2.966h5.691m-2.478 4.567c1.239 0 2.121-.47 3-1.345l1.491 1.345c-1.05 1.28-2.499 2.112-4.536 2.112-3.213 0-5.691-2.368-5.691-5.868 0-3.244 2.247-5.89 5.418-5.89 3.528 0 5.313 2.817 5.313 6.082 0 .235-.021.448-.042.704h-8.148c.294 1.835 1.554 2.86 3.192 2.86"/><path d="m65.35 15.744h-2.541v-11.268h2.541v2.539c.693-1.686 1.974-2.838 3.927-2.753v2.731h-.147c-2.226 0-3.78 1.472-3.78 4.46v4.289"/><path d="m74.861 15.958c-1.575 0-3.318-.576-4.704-1.686l1.134-1.75c1.197.917 2.499 1.387 3.633 1.387 1.092 0 1.722-.47 1.722-1.216v-.043c0-.875-1.176-1.174-2.478-1.579-1.637-.47-3.465-1.153-3.465-3.308v-.043c0-2.134 1.743-3.436 3.948-3.436 1.386 0 2.898.491 4.074 1.28l-1.01 1.835c-1.071-.662-2.205-1.067-3.129-1.067-.987 0-1.554.47-1.554 1.131v.042c0 .811 1.197 1.153 2.499 1.579 1.617.512 3.444 1.259 3.444 3.287v.043c0 2.369-1.806 3.543-4.116 3.543"/><path d="m80.87 4.476h2.541v11.268h-2.541v-11.268m-.105-4.183h2.73v2.454h-2.73v-2.454"/><path d="m91.16 6.504c-2.037 0-3.339 1.622-3.339 3.607 0 2.01 1.407 3.649 3.381 3.649 2.058 0 3.36-1.622 3.36-3.607 0-2.01-1.407-3.649-3.402-3.649m0 9.496c-3.381 0-5.88-2.624-5.88-5.847 0-3.244 2.52-5.911 5.922-5.911 3.402 0 5.901 2.625 5.901 5.869 0 3.223-2.52 5.89-5.943 5.89"/><path d="m101.38 15.744h-2.541v-11.268h2.541v1.75c.714-1.067 1.743-1.985 3.465-1.985 2.499 0 3.948 1.707 3.948 4.332v7.17h-2.541v-6.402c0-1.75-.861-2.753-2.373-2.753-1.469 0-2.499 1.045-2.499 2.795v6.359"/></g></svg>