<?xml version="1.0" encoding="UTF-8" standalone="no"?>
<svg width="40px" height="40px" viewBox="0 0 40 40" version="1.1" xmlns="http://www.w3.org/2000/svg" xmlns:xlink="http://www.w3.org/1999/xlink">
    <!-- Generator: Sketch 3.8.3 (29802) - http://www.bohemiancoding.com/sketch -->
    <title>Left Button</title>
    <desc>Created with Sketch.</desc>
    <defs></defs>
    <g id="Page-1" stroke="none" stroke-width="1" fill="none" fill-rule="evenodd">
        <g id="Plan---reader" transform="translate(-453.000000, -123.000000)" fill="#979797">
            <g id="Group" transform="translate(453.010974, 123.000000)">
                <g id="Left-Button">
                    <path d="M20,40 C8.954305,40 0,31.045695 0,20 C0,8.954305 8.954305,0 20,0 C31.045695,0 40,8.954305 40,20 C40,31.045695 31.045695,40 20,40 Z M20,39 C30.4934102,39 39,30.4934102 39,20 C39,9.50658975 30.4934102,1 20,1 C9.50658975,1 1,9.50658975 1,20 C1,30.4934102 9.50658975,39 20,39 Z M22.6,24.8043777 L18.3574403,20.5 L22.6,16.1956223 L21.4214534,15 L17.1785466,19.3043777 L16,20.5 L21.4214534,26 L22.6,24.8043777 Z" id="Combined-Shape"></path>
                </g>
            </g>
        </g>
    </g>
</svg>