<?xml version="1.0" encoding="utf-8"?>
<!-- Generator: Adobe Illustrator 18.1.1, SVG Export Plug-In . SVG Version: 6.00 Build 0)  -->
<!DOCTYPE svg PUBLIC "-//W3C//DTD SVG 1.1//EN" "http://www.w3.org/Graphics/SVG/1.1/DTD/svg11.dtd">
<svg version="1.1" id="Layer_1" xmlns:sketch="http://www.bohemiancoding.com/sketch/ns"
	 xmlns="http://www.w3.org/2000/svg" xmlns:xlink="http://www.w3.org/1999/xlink" x="0px" y="0px" viewBox="-371 283 48 48"
	 enable-background="new -371 283 48 48" xml:space="preserve">
<title>icon-plans-family-outline</title>
<desc>Created with Sketch.</desc>
<path fill="#9D9D9D" d="M-324.4,301.6c-0.5-2.1-1.9-3.4-3.8-4.1c-0.7-0.3-1.5-0.4-2.2-0.5c0.7-2.1,0.5-4.4-1.3-6.7
	c-1.6-2-3.5-2.6-5.5-2c-0.8,0.3-1.5,0.7-2.2,1.2c-0.1-0.2-0.2-0.6-0.3-0.7c-0.1-0.3-0.2-0.6-0.4-0.9c-1-2.2-2.5-3.6-5.2-4.4
	c-2.8-0.8-4.9-0.3-6.3,1.2c-0.3,0.3-0.6,0.7-0.8,1c-2,0.2-3.5,1-4.4,2.3c-0.2,0.3-0.4,0.6-0.6,0.9c-1.6-0.9-3.6-1-5.9,0
	c-1.6,0.7-2.5,1.8-2.8,3.1c-0.2,0.8-0.1,1.7,0.1,2.5c-0.4,0.1-0.8,0.2-1.1,0.3c-1.6,0.7-2.6,2.2-2.7,4.5c-0.1,2.5,1.1,4.2,3.1,5
	c0,0,0.1,0,0.1,0c-0.1,0.1-0.3,0.2-0.4,0.3c-2,1.7-3.1,3.7-2.8,6.1c0.4,3.1,1.9,4.6,4.3,4.9c0.5,0.1,0.9,0.1,1.4,0.1
	c0.4,1.9,1.1,2.8,3.4,3.5c1.7,0.6,3.3,0.1,4.6-1c0.2-0.2,0.4-0.4,0.5-0.5c0,0,0,0,0.1,0c1,0.4,2.2,0.6,3.5,0.4
	c1.1-0.2,2-0.7,2.7-1.5c0.1-0.1,0.1-0.2,0.2-0.2c0,1.5,0,2.9,0,4.4c0,0.8,0.1,1.5,0.2,2.2c0.2,2.2-0.2,2.5-2.9,3
	c-1.3,0.2-1.7,0.3-2.4,0.5c-0.2,0.1-0.4,0.1-0.6,0.2c-0.4,0.1-0.8,0.3-1.1,0.4c-1.8,0.8-2.4,2.1-1.9,3.2c0.1,0.1,0.1,0.3,0.2,0.3
	l0.3,0.4h0.5h22.9h0.9l0.1-0.9c0,0,0,0,0-0.1c0-0.6-0.1-1.2-0.5-1.8c-0.6-0.9-1.8-1.5-3.4-1.6c-4.3-0.4-6.1-1.2-6.1-3.6
	c0-1.3,0-1.3,0-2.7c0-0.6,0-0.6,0-1.2c0-2.3,0-3.2,0-4.1c0.9,0.4,1.9,0.7,3,0.9c1.4,0.2,2.9,0.1,4.4-0.1c0.3,0,0.5-0.1,0.7-0.1
	c0.2,0.1,0.4,0.3,0.7,0.4c1.5,0.7,3,0.9,4.5,0.3c0.4-0.2,0.9-0.4,1.3-0.7c2.4-1.9,3.1-5,2-7C-324.3,307.4-323.4,305.1-324.4,301.6z
	 M-328.4,307.4l-1.9,0.7l1.7,1.1c1.2,0.8,0.9,3.4-1,4.9c-0.2,0.2-0.5,0.3-0.8,0.4c-0.9,0.4-1.9,0.2-2.9-0.2
	c-0.4-0.2-0.6-0.3-0.8-0.4l-0.4-0.3l-0.4,0.1c-0.2,0-0.5,0.1-0.9,0.1c-1.3,0.2-2.7,0.2-3.9,0.1c-1.6-0.2-2.8-0.7-3.5-1.5l-1.8-2v2.7
	c0,2.2,0,2.2,0,6.1c0,0.6,0,0.6,0,1.2c0,1.4,0,1.4,0,2.7c0,3.9,2.7,5.2,7.9,5.6c0.7,0.1,1.2,0.2,1.5,0.4h-19.7
	c0.1,0,0.1-0.1,0.2-0.1c0.3-0.1,0.5-0.2,0.9-0.3c0.1,0,0.3-0.1,0.5-0.1c0.6-0.2,0.9-0.2,2.2-0.4c3.6-0.6,4.9-1.6,4.5-5.1
	c-0.1-0.7-0.1-1.4-0.2-2.1c-0.1-2-0.1-4.2,0.1-6.4c0-0.4,0-0.8,0.1-1.2c0-0.2,0-0.4,0-0.4l0.4-4.1l-2.2,3.5l-1.3,2.1l-0.1,0.1l0,0.1
	c-0.1,0.2-0.3,0.6-0.6,0.9c-0.4,0.5-0.9,0.8-1.6,0.9c-0.9,0.2-1.7,0-2.4-0.2c-0.3-0.1-0.4-0.2-0.5-0.2l-0.9-0.7l-0.6,0.9
	c-0.1,0.2-0.4,0.5-0.8,0.8c-0.8,0.7-1.7,1-2.7,0.7c-1.6-0.5-1.8-0.8-2.1-2c-0.1-0.6-0.1-0.6-0.2-0.8l-0.2-0.8h-0.8
	c-0.1,0-0.2,0-0.3,0c-0.8,0-1.2,0-1.6-0.1c-1.5-0.2-2.4-1.1-2.6-3.2c-0.2-1.6,0.6-3.1,2.1-4.3c0.5-0.4,1-0.8,1.6-1.1
	c0.3-0.2,0.6-0.3,0.7-0.4l4.9-2.1l-5.4,0.2c0,0,0,0,0,0c-0.6,0-1.3-0.1-2.1-0.4c-1.3-0.5-1.9-1.4-1.9-3c0.1-1.6,0.7-2.4,1.5-2.8
	c0.5-0.2,1.1-0.3,1.5-0.2c0,0,0.1,0,0.1,0l2,0.3l-1-1.8c-0.1-0.1-0.1-0.3-0.2-0.6c-0.2-0.7-0.3-1.4-0.2-2c0.2-0.7,0.7-1.3,1.7-1.7
	c1.8-0.8,3.2-0.7,4.2-0.1c0.3,0.2,0.5,0.3,0.6,0.4l1.4,1.7l0.3-2.2c0-0.1,0-0.2,0.1-0.4c0.1-0.4,0.3-0.7,0.6-1
	c0.7-0.9,1.7-1.4,3.2-1.5c0.1,0,0.2,0,0.3,0l0.3,0l0.2-0.2c0.1-0.1,0.8-1,1-1.3c0.9-1,2.2-1.3,4.3-0.7c2.1,0.6,3.2,1.7,4,3.3
	c0.1,0.2,0.2,0.5,0.3,0.8c0.1,0.2,0.3,0.8,0.3,0.8c0.2,0.6,0.4,0.9,0.6,1.3l0.6,1.2l1-0.9c0.9-0.9,1.7-1.4,2.5-1.7
	c1.2-0.4,2.2,0,3.3,1.4c1.5,1.9,1.6,3.6,0.9,5.2c-0.1,0.3-0.3,0.6-0.3,0.7l-1.3,1.8l2.2-0.2c0,0,0,0,0.1,0c0.9,0,1.9,0.1,2.9,0.4
	c1.3,0.5,2.2,1.4,2.6,2.7C-325.5,305.2-326.3,306.6-328.4,307.4z"/>
</svg>
