<svg xmlns="http://www.w3.org/2000/svg" viewBox="-355 267 80 80" enable-background="new -355 267 80 80"><style type="text/css">.st0{fill:#666666;}</style><path class="st0" d="M-325.7 330.5l-4 4c-3.5 3.5-9.2 3.5-12.7 0-1.7-1.7-2.6-3.9-2.6-6.3s.9-4.6 2.6-6.3l14.9-14.8c3.1-3.1 8.9-7.6 13.1-3.4 1.9 1.9 5.1 1.9 7 0 1.9-1.9 1.9-5.1 0-7-7.2-7.1-17.8-5.8-27.1 3.4l-14.9 14.8c-3.6 3.5-5.5 8.3-5.5 13.3s2 9.7 5.5 13.3c3.7 3.6 8.5 5.5 13.3 5.5 4.8 0 9.7-1.8 13.3-5.5l4.1-4c1.9-1.9 2-5.1 0-7-1.9-1.9-5.1-2-7 0zm45.2-57.5c-7.7-7.7-18.5-8.1-25.7-1l-5 5c-1.9 1.9-2 5.1 0 7 1.9 1.9 5.1 2 7 0l5-5c3.7-3.7 8.6-2.2 11.7 1 1.7 1.7 2.6 3.9 2.6 6.3s-.9 4.6-2.6 6.3l-15.9 15.8c-7.3 7.2-10.7 3.8-12.1 2.4-1.9-1.9-5.1-1.9-7 0s-1.9 5.1 0 7c3.3 3.3 7.1 5 11.1 5 4.9 0 10.1-2.5 15-7.3l15.9-15.8c3.6-3.5 5.5-8.3 5.5-13.3 0-5.1-2-9.8-5.5-13.4z"/></svg>