<svg xmlns:sketch="http://www.bohemiancoding.com/sketch/ns" xmlns="http://www.w3.org/2000/svg" viewBox="-299.8 571.7 612.1 606.5" enable-background="new -299.8 571.7 612.1 606.5"><title>Untitled</title><desc>Created with Sketch.</desc><path sketch:type="MSShapeGroup" fill="#fff" d="M-107.5 704.4c-113.8 45.5-113.8 163.1-113.8 246.4 3.8 91-45.5 113.8-75.8 151.7-22.8 3.8 102.4 34.1 227.5 37.9 18.9 22.8 45.5 37.9 75.8 37.9 26.6 0 53-11.4 75.8-37.9 125.1-3.8 250.3-34.1 227.5-37.9-30.3-37.9-79.6-60.7-75.8-151.7-3.8-83.5 0-200.9-113.8-246.4v-18.9c.1-64.6-49.2-113.8-113.6-113.8s-113.8 49.3-113.8 113.8v18.9zm75.8-18.9c0-22.8 15.2-37.9 37.9-37.9s37.9 15.2 37.9 37.9-15 37.9-37.8 37.9-38-15.2-38-37.9z"/></svg>