<svg xmlns:sketch="http://www.bohemiancoding.com/sketch/ns" xmlns="http://www.w3.org/2000/svg" viewBox="-365 277 60 60" enable-background="new -365 277 60 60"><title>Slice 1</title><desc>Created with Sketch.</desc><path sketch:type="MSShapeGroup" fill="#6AB750" d="M-331.3 285.3l-3.7-8.3-3.7 8.3c1.2-.2 2.4-.3 3.7-.3s2.5.1 3.7.3zm0 43.4l-3.7 8.3-3.7-8.3c1.2.2 2.4.3 3.7.3s2.5-.1 3.7-.3zm9-3.8l8.5 3.3-3.3-8.5c-1.4 2-3.2 3.8-5.2 5.2zm-30.6-30.6l-3.3-8.5 8.5 3.3c-2 1.4-3.8 3.2-5.2 5.2zm39.6 16.4l8.3-3.7-8.3-3.7c.2 1.2.3 2.4.3 3.7s-.1 2.5-.3 3.7zm-43.4 0l-8.3-3.7 8.3-3.7c-.2 1.2-.3 2.4-.3 3.7s.1 2.5.3 3.7zm39.6-16.4l3.3-8.5-8.5 3.3c2 1.4 3.8 3.2 5.2 5.2zm-30.6 30.6l-8.5 3.3 3.3-8.5c1.4 2 3.2 3.8 5.2 5.2zm12.7-4.9c7.2 0 13-5.8 13-13s-5.8-13-13-13-13 5.8-13 13 5.8 13 13 13z"/></svg>