<svg xmlns="http://www.w3.org/2000/svg" viewBox="0 90 612 612" enable-background="new 0 90 612 612"><path fill="#fff" d="M306 90c-168.3 0-306 137.7-306 306s137.7 306 306 306 306-137.7 306-306-137.7-306-306-306zm33.1 482c-20.4 17.8-40.8 28-61.2 28-12.8 0-22.9-5.1-33.1-12.8-10.2-7.6-15.3-20.4-15.3-35.7 0-5.1 33.2-122.4 35.7-130 5.1-15.3 5.1-28.1 5.1-33.1 0-5.1 0-7.7-2.6-10.2-2.5-2.5-5.1-2.5-7.6-2.5-7.7 0-15.3 5.1-25.5 17.8-2.6 2.6-5.1 7.7-10.2 10.2l-12.7-7.6c12.8-17.9 22.9-30.6 30.6-38.2 20.4-17.9 40.8-28.1 61.2-28.1 12.8 0 23 5.1 33.2 12.8 10.2 7.7 15.3 20.4 15.3 35.7 0 5.1-2.5 15.3-5.1 25.5-2.6 7.6-38.2 130.1-38.2 135.1s0 7.6 2.5 10.2c2.6 2.6 5.1 2.6 7.7 2.6 7.6 0 15.3-5.1 25.5-17.9 5.1-5.1 7.6-10.2 10.2-12.8l12.8 12.8c-10.4 17.7-20.6 30.5-28.3 38.2zm43.4-326.4c-5.1 28.1-33.1 51-61.2 51s-45.9-23-40.8-51 33.1-51 61.2-51c28.1 2.5 45.9 25.5 40.8 51z"/></svg>