<svg xmlns="http://www.w3.org/2000/svg" viewBox="0 0 22 22" enable-background="new 0 0 22 22"><style type="text/css">.st0{fill:#888888;}</style><g id="XMLID_1_"><path id="XMLID_4_" class="st0" d="M17 4.5c-1.4 0-2.5 1.1-2.5 2.5s1.1 2.5 2.5 2.5 2.5-1.1 2.5-2.5-1.1-2.5-2.5-2.5zm0 4c-.8 0-1.5-.7-1.5-1.5s.7-1.5 1.5-1.5 1.5.7 1.5 1.5-.7 1.5-1.5 1.5z"/><path id="XMLID_7_" class="st0" d="M20 0h-18c-1.1 0-2 .8-2 2v18c0 1.4.7 2 2 2h18c1.3 0 2-.7 2-2v-18c0-1-.5-2-2-2zm-10.7 11l4.9 7.1.3.4.8-.6-.3-.4-1-1.5.1-.1.9-1.6 4.7 6.7h-16.7l6.3-10zm11.7 9c0 .4-.1.7-.3.8l-.1-.1-5.3-7.7-.5-.7-.4.7-1.1 2-3.6-5.2-.4-.7-.4.7-7 11-.1.2c-.6 0-.8-.3-.8-1v-18c0-.6.4-1 1-1h18c.7 0 1 .3 1 1v18z"/></g></svg>