<svg xmlns="http://www.w3.org/2000/svg" viewBox="0 0 24 24" enable-background="new 0 0 24 24"><path fill-rule="evenodd" clip-rule="evenodd" fill="#89847D" d="M12 0c-6.6 0-12 5.4-12 12s5.4 12 12 12 12-5.4 12-12-5.4-12-12-12zm1.3 18.9c-.8.7-1.6 1.1-2.4 1.1-.5 0-.9-.2-1.3-.5s-.6-.8-.6-1.4c0-.2 1.3-4.8 1.4-5.1.2-.6.2-1.1.2-1.3s0-.3-.1-.4c-.1-.1-.2-.1-.3-.1-.3 0-.6.2-1 .7-.1.1-.2.3-.4.4l-.5-.3c.5-.7.9-1.2 1.2-1.5.8-.7 1.6-1.1 2.4-1.1.5 0 .9.2 1.3.5s.6.8.6 1.4c0 .2-.1.6-.2 1-.1.3-1.5 5.1-1.5 5.3 0 .2 0 .3.1.4.1.1.2.1.3.1.3 0 .6-.2 1-.7.2-.2.3-.4.4-.5l.5.5c-.4.7-.8 1.2-1.1 1.5zm1.7-12.8c-.2 1.1-1.3 2-2.4 2-1.1 0-1.8-.9-1.6-2 .2-1.1 1.3-2 2.4-2 1.1.1 1.8 1 1.6 2z"/></svg>