<svg xmlns:sketch="http://www.bohemiancoding.com/sketch/ns" xmlns="http://www.w3.org/2000/svg" viewBox="-291 385 24 23" enable-background="new -291 385 24 23"><title>Untitled 2</title><desc>Created with Sketch.</desc><path fill="#888" d="M-279 386.1c2.4 0 4.5 1.8 4.9 4.2.1.5.1.9 0 1.4l-.5 3.5c-.3 2.1-2.2 3.8-4.4 3.8h-.6c-1.9-.3-3.5-1.8-3.7-3.7l-.5-3.5c-.2-1.3.1-2.6.9-3.6.8-1.1 1.9-1.7 3.2-1.9.2-.2.5-.2.7-.2m-.3 17c3.4 0 6.8.6 9.1 1.1 1.2.3 2.1 1.4 2.1 2.7v.1h-21.9v-.3c0-1.3.9-2.4 2.2-2.7 2.1-.4 5.2-.9 8.5-.9m.3-18.1c-.3 0-.6 0-.9.1-3.3.5-5.5 3.5-5.1 6.8l.5 3.5c.3 2.3 2.2 4.3 4.6 4.6l.8.1c2.7 0 5-2 5.4-4.7l.5-3.5c.1-.5.1-1.1 0-1.7-.3-3.1-2.9-5.2-5.8-5.2zm-.3 17c-3.3 0-6.5.5-8.7.9-1.8.4-3 1.9-3 3.7v1.3h24v-1.1c0-1.8-1.2-3.3-2.9-3.7-2.4-.5-5.9-1.1-9.4-1.1z" sketch:type="MSPage"/></svg>