<svg xmlns:sketch="http://www.bohemiancoding.com/sketch/ns" xmlns="http://www.w3.org/2000/svg" viewBox="-382 295 22 24" enable-background="new -382 295 22 24"><style type="text/css">.st0{fill:#979797;}</style><title>notes-tab-icon copy 2</title><desc>Created with Sketch.</desc><path id="Rectangle-221" sketch:type="MSShapeGroup" class="st0" d="M-382 296c0-.6.4-1 1-1h20c.6 0 1 .4 1 1v17l-7 6h-14c-.6 0-1-.4-1-1v-22zm2.5 7h17.5v-1h-18v1h.5zm0-3h17.5v-1h-18v1h.5zm13.5 12c-1.3 0-2 .7-2 2v5h1v-5c.1-.7.3-.9 1-1h6v-1h-6z"/></svg>