<svg xmlns="http://www.w3.org/2000/svg" viewBox="0 0 216 30.2" enable-background="new 0 0 216 30.2"><path d="M12.8 18.2l-12.8-18.2h7.5l8.4 13.1 8.4-13.1h7.5l-12.8 18.2v11.2h-6.2v-11.2zM39.2 6.7c9.7 0 13.5 5.7 13.5 11.7 0 6-3.7 11.7-13.5 11.7s-13.5-5.7-13.5-11.7c0-5.9 3.8-11.7 13.5-11.7zm0 19.1c5.5 0 7.6-3.6 7.6-7.4 0-3.8-2.1-7.4-7.6-7.4s-7.6 3.6-7.6 7.4c.1 3.8 2.1 7.4 7.6 7.4zM55.2 7.6h5.7v12.4c0 3.3.8 5.8 5.6 5.8 2.5 0 6.6-1.6 6.6-6.3v-12h5.7v21.8h-5.7v-3h-.1c-1.9 2.3-4.7 3.9-8.6 3.9-4.7 0-9.3-1.7-9.3-8.1v-14.5zM80.4 0h1.1l12.5 28.3 12.6-28.3h1.1l-13.2 29.4h-1.1l-13-29.4zM107.3 18.8c0 5.6 3.7 10.4 10.8 10.4 7.3 0 9.3-4.5 10.1-7.2h.8c-.7 3-3 8-10.9 8-7.2 0-11.6-4.8-11.6-11.2 0-6.4 4.4-11.2 11.6-11.2 6.1 0 11.2 4.1 11.2 11.2h-22zm21.1-.8c-.3-5-3.9-9.5-10.4-9.5-6.8 0-10.4 4.4-10.8 9.5h21.2zM132.1 8.3h.8v5.7h.1c1.2-4.2 4.9-6.3 8.7-6.3.7 0 1.4.1 1.8.1v.8c-.6-.1-1.3-.1-1.8-.1-4.8 0-8.7 3.6-8.7 10.5v10.4h-.8v-21.1zM144.1 22.8c.4 4 1.9 6.4 9.4 6.4 5.5 0 8.6-1.6 8.6-5.2 0-3.2-1.7-4.2-6.1-4.7l-6.4-.8c-3.5-.4-5.6-1.9-5.6-5.2 0-3.5 2.5-5.6 9.2-5.6 5.6 0 8.6 1.5 8.8 6.8h-.8c-.2-4.8-2.9-6-8.3-6-6.1 0-8.1 2-8.1 4.8 0 2.6 1.5 3.9 5 4.4l6.4.8c5.1.6 6.7 2.1 6.7 5.6 0 2.6-1.3 6-9.5 6-8.7 0-9.8-3.4-10.2-7.2h.9zM165.6 7.9h.8v21.5h-.8v-21.5zM196.1 8.3h.8v4.7h.1c1.6-3.7 4.9-5.4 9.5-5.4 8.1 0 9.5 4.4 9.5 8.5v13.2h-.8v-13.2c0-3.5-1.1-7.6-8.6-7.6-8.8 0-9.6 6.4-9.6 9.1v11.8h-.8v-21.1zM189.1 23.7c-.8 1.3-1.9 2.5-3.3 3.3l.1.6c0 .6-.1 1.2-.3 1.7 2.6-1.1 4.7-3.2 5.9-5.9-.5.2-1.1.3-1.7.3-.3.1-.5.1-.7 0zM176.3 27c-1.3-.8-2.5-1.9-3.3-3.3l-.6.1c-.6 0-1.2-.1-1.7-.3 1.1 2.6 3.2 4.7 5.9 5.9-.2-.5-.3-1.1-.3-1.7v-.7zM185.8 11c1.3.8 2.5 1.9 3.3 3.3l.6-.1c.6 0 1.2.1 1.7.3-1.1-2.6-3.2-4.7-5.9-5.9.2.5.3 1.1.3 1.7v.7zM173 14.3c.8-1.3 1.9-2.5 3.3-3.3l-.1-.6c0-.6.1-1.2.3-1.7-2.6 1.1-4.7 3.2-5.9 5.9.5-.2 1.1-.3 1.7-.3.3-.1.5-.1.7 0zM181 7.7c-2.7 0-3.2 1.4-3.2 2.6 0 1.2.6 2.6 3.2 2.6 2.7 0 3.2-1.4 3.2-2.6.1-1.1-.5-2.6-3.2-2.6zM181 30.2c2.7 0 3.2-1.4 3.2-2.6 0-1.2-.6-2.6-3.2-2.6-2.7 0-3.2 1.4-3.2 2.6 0 1.2.6 2.6 3.2 2.6zM169.8 19c0 2.1.9 3.2 2.6 3.2 1.2 0 2.6-.6 2.6-3.2 0-2.1-.9-3.2-2.6-3.2-1.7 0-2.6 1.1-2.6 3.2zM192.3 19c0-2.1-.9-3.2-2.6-3.2-1.7 0-2.6 1.1-2.6 3.2s.9 3.2 2.6 3.2c1.7 0 2.6-1.1 2.6-3.2z"/></svg>