<?xml version="1.0" encoding="utf-8"?>
<!-- Generator: Adobe Illustrator 18.1.1, SVG Export Plug-In . SVG Version: 6.00 Build 0)  -->
<!DOCTYPE svg PUBLIC "-//W3C//DTD SVG 1.1//EN" "http://www.w3.org/Graphics/SVG/1.1/DTD/svg11.dtd">
<svg version="1.1" id="Layer_1" xmlns="http://www.w3.org/2000/svg" xmlns:xlink="http://www.w3.org/1999/xlink" x="0px" y="0px"
	 viewBox="0 0 22.5 22.3" enable-background="new 0 0 22.5 22.3" xml:space="preserve">
<g>
	<g>
		<path fill="#888888" d="M11.2,0C8.6,0,8,1.4,8,2.6c0,1.2,0.6,2.6,3.2,2.6c2.7,0,3.2-1.4,3.2-2.6C14.5,1.4,13.9,0,11.2,0z
			 M11.2,17.1c-2.7,0-3.2,1.4-3.2,2.6c0,1.2,0.6,2.6,3.2,2.6c2.7,0,3.2-1.4,3.2-2.6C14.5,18.5,13.9,17.1,11.2,17.1z M5.2,11.2
			c0-2.1-0.9-3.2-2.6-3.2C0.9,7.9,0,9.1,0,11.2c0,2.1,0.9,3.2,2.6,3.2C3.8,14.4,5.2,13.8,5.2,11.2z M19.9,7.9
			c-1.7,0-2.6,1.1-2.6,3.2c0,2.1,0.9,3.2,2.6,3.2c1.7,0,2.6-1.1,2.6-3.2C22.5,9.1,21.6,7.9,19.9,7.9z M19.3,15.8
			c-0.8,1.3-1.9,2.5-3.3,3.2c0,0.2,0.1,0.4,0.1,0.6c0,0.6-0.1,1.2-0.3,1.7c2.6-1.1,4.7-3.2,5.9-5.8c-0.5,0.2-1.1,0.3-1.7,0.3
			C19.7,15.9,19.5,15.9,19.3,15.8z M6.5,19.1c-1.3-0.8-2.5-1.9-3.3-3.2c-0.2,0-0.4,0-0.6,0c-0.6,0-1.2-0.1-1.7-0.3
			c1.1,2.6,3.2,4.7,5.9,5.8c-0.2-0.5-0.3-1.1-0.3-1.7C6.5,19.5,6.5,19.3,6.5,19.1z M16,3.2c1.3,0.8,2.5,1.9,3.3,3.2
			c0.2,0,0.4-0.1,0.6-0.1c0.6,0,1.2,0.1,1.7,0.3c-1.1-2.6-3.2-4.7-5.9-5.8C15.9,1.4,16,2,16,2.6C16,2.8,16,3,16,3.2z M3.2,6.5
			C4,5.1,5.2,4,6.5,3.2c0-0.2-0.1-0.4-0.1-0.6c0-0.6,0.1-1.2,0.3-1.7C4.2,2,2.1,4.1,0.9,6.7C1.4,6.5,2,6.4,2.6,6.4
			C2.8,6.4,3,6.4,3.2,6.5z"/>
	</g>
</g>
</svg>
