<?xml version="1.0" encoding="utf-8"?>
<!-- Generator: Adobe Illustrator 18.1.1, SVG Export Plug-In . SVG Version: 6.00 Build 0)  -->
<!DOCTYPE svg PUBLIC "-//W3C//DTD SVG 1.1//EN" "http://www.w3.org/Graphics/SVG/1.1/DTD/svg11.dtd">
<svg version="1.1" id="Layer_1" xmlns="http://www.w3.org/2000/svg" xmlns:xlink="http://www.w3.org/1999/xlink" x="0px" y="0px"
	 viewBox="-289 381 32 32" enable-background="new -289 381 32 32" xml:space="preserve">
<path fill="#888888" d="M-257.3,390.2c0,0-0.3-2.4-1.3-3.4c-1.2-1.4-2.6-1.4-3.2-1.4c-4.5-0.3-11.2-0.3-11.2-0.3h0
	c0,0-6.7,0-11.2,0.3c-0.6,0.1-2,0.1-3.2,1.4c-1,1-1.3,3.4-1.3,3.4s-0.3,2.8-0.3,5.5v2.6c0,2.8,0.3,5.5,0.3,5.5s0.3,2.4,1.3,3.4
	c1.2,1.4,2.8,1.3,3.5,1.5c2.6,0.3,10.9,0.3,10.9,0.3s6.7,0,11.2-0.4c0.6-0.1,2-0.1,3.2-1.4c1-1,1.3-3.4,1.3-3.4s0.3-2.8,0.3-5.5
	v-2.6C-257,392.9-257.3,390.2-257.3,390.2z M-277,403v-12l10,6L-277,403z"/>
</svg>
