<svg xmlns:sketch="http://www.bohemiancoding.com/sketch/ns" xmlns="http://www.w3.org/2000/svg" viewBox="-299.7 479 617.4 612" enable-background="new -299.7 479 617.4 612"><title>Untitled</title><desc>Created with Sketch.</desc><path sketch:type="MSShapeGroup" fill="#89847D" d="M-105.8 612.9c-114.8 45.9-114.8 164.5-114.8 248.6 3.8 91.8-45.9 114.8-76.5 153-23 3.8 103.3 34.4 229.5 38.2 19.1 23 45.9 38.2 76.5 38.2 26.8 0 53.5-11.5 76.5-38.2 126.2-3.8 252.5-34.4 229.5-38.2-30.6-38.2-80.3-61.2-76.5-153-3.8-84.2 0-202.7-114.8-248.6v-19.1c.1-65.1-49.6-114.8-114.6-114.8s-114.8 49.7-114.8 114.8v19.1zm76.5-19.1c0-23 15.3-38.2 38.2-38.2s38.2 15.3 38.2 38.2-15.1 38.2-38.1 38.2-38.3-15.3-38.3-38.2z"/></svg>