<svg xmlns="http://www.w3.org/2000/svg" xmlns:xlink="http://www.w3.org/1999/xlink" version="1.1" x="0px" y="0px" viewBox="0 0 523 162.9" enable-background="new 0 0 523 162.9" xml:space="preserve">
  <g id="Background">
    <g>
      <path fill="#B0B0B0" d="M105.4 84.9c-0.2-19 16-28.2 16.7-28.6C113 43.3 98.8 41.6 93.7 41.4c-12.1-1.2-23.5 6.9-29.6 6.9s-15.6-6.7-25.6-6.5c-13.2 0.2-25.2 7.5-32 18.9 -13.6 23-3.4 57 9.9 75.7 6.6 9.1 14.3 19.4 24.5 19 9.8-0.4 13.5-6.2 25.4-6.2s15.2 6.1 25.6 6c10.6-0.2 17.3-9.3 23.7-18.5 7.5-10.6 10.5-20.9 10.7-21.4C126 115.2 105.6 107.6 105.4 84.9z"/>
      <path fill="#B0B0B0" d="M85.9 29.1c5.4-6.4 9.1-15.2 8.1-24 -7.8 0.3-17.3 5-22.8 11.4 -5 5.7-9.4 14.7-8.2 23.3C71.6 40.4 80.5 35.5 85.9 29.1z"/>
    </g>
    <path fill-rule="evenodd" clip-rule="evenodd" fill="#B0B0B0" d="M447.4 97.2c-2.5 10.3-14.4 24.6-25.9 16 -7.7-5.8-7-20.1-1.5-26.9 6.3-7.8 18.9-9 28.2-9C448.2 83.9 449 90.9 447.4 97.2zM433.5 60.8c-26.9 3.2-53.3 16.3-49.8 47.8 1.5 13.6 9.7 25 23.3 28.4 17.4 4.4 33.9-2.9 46.3-15 2.8 4.4 6 9.1 9.8 12.5 4.9 4.4 7.5 1.8 12-1.9 3.4-2.9 13.2-8.6 14.1-13.4 1-5.6-8-12.3-9.1-18.3 -1.6-8.8-0.4-18.7-0.4-27.7V46.3c0-35.6-45.5-41.5-71.2-29.5 -6.6 3.1-12.3 7.8-16.2 14 -2 3.4-6.8 12-5.2 16.2 1.7 4.6 13.9 4.1 18.3 4.6 6.6 0.6 8.2 0.4 10.9-6.1 5.7-13.2 29.3-15.9 32.2 1.1 0.4 2.3 0 12.2 0 12.2S437.1 60.4 433.5 60.8z"/>
    <path fill="#B0B0B0" d="M498.4 119.6c-2.5 1-9.7 4.6-5.2 6.1 3.8 1.3 11.2-2.3 15.4-2.5 5.2-0.3 7.3 1.6 6.9 7.1 -0.3 3.8-5 12.4-3.7 15.8 0.8 2-0.4 1.8 1.8 1.1 2.1-0.6 4.1-5.2 5-7.1 2.5-5 4.3-11.2 4.3-16.9C523 111.9 504.7 117 498.4 119.6z"/>
    <path fill="#B0B0B0" d="M492.6 136.1c-12.3 5.2-25.2 9.3-38.4 11.4 -26.7 4.5-54.6 0.8-80.3-7.2 -4.7-1.4-12.5-6.4-17.4-6.3 -3.5 0.1-1.1 2.2 1 3.8 4.8 3.8 10.5 6.9 15.9 9.7 26 13.2 53.9 16.8 82.3 10.9 11.6-2.4 22.8-6.2 33.3-11.9 3.7-2 19.8-9.9 19.8-15.1C508.8 126.8 493.9 135.6 492.6 136.1z"/>
    <g>
      <path fill="#B0B0B0" d="M184.4 52.7c-5.6 0-10.1 4.5-10.1 10.1l0 42.1c0 5.6 4.5 10.1 10.1 10.1 5.6 0 10.1-4.5 10.1-10.1l0-42.1C194.4 57.2 189.9 52.7 184.4 52.7M265.5 14.9l7-12.8c0.4-0.7 0.1-1.5-0.6-1.9 -0.7-0.4-1.5-0.1-1.9 0.6l-7.1 12.9c-6-2.7-12.6-4.1-19.7-4.1 -7 0-13.7 1.5-19.7 4.1l-7.1-12.9c-0.4-0.7-1.2-0.9-1.9-0.6 -0.7 0.4-0.9 1.2-0.6 1.9l7 12.8C207.3 22 198 35.5 198 51.1l90.6 0C288.5 35.5 279.2 22 265.5 14.9M222.6 34.7c-2.1 0-3.8-1.7-3.8-3.8 0-2.1 1.7-3.8 3.8-3.8 2.1 0 3.8 1.7 3.8 3.8C226.5 33 224.8 34.7 222.6 34.7M263.9 34.7c-2.1 0-3.8-1.7-3.8-3.8 0-2.1 1.7-3.8 3.8-3.8 2.1 0 3.8 1.7 3.8 3.8C267.7 33 266 34.7 263.9 34.7M198.3 54.6l0 65.2c0 5.9 4.8 10.7 10.7 10.7l7.3 0 0 22.3c0 5.5 4.5 10.1 10 10.1 5.6 0 10.1-4.5 10.1-10.1l0-22.3 13.6 0 0 22.3c0 5.5 4.5 10.1 10 10 5.6 0 10.1-4.5 10.1-10.1l0-22.3 7.3 0c5.9 0 10.7-4.8 10.7-10.7l0-65.2L198.3 54.6zM312.2 62.7c0-5.6-4.5-10.1-10.1-10.1 -5.6 0-10.1 4.5-10 10.1l0 42.1c0 5.6 4.5 10.1 10.1 10.1 5.6 0 10-4.5 10.1-10.1L312.2 62.7z"/>
    </g>
  </g>
  <g id="Layer_1"/>
</svg>
