<svg viewBox="0 0 109 33" xmlns="http://www.w3.org/2000/svg"><g fill="#636363" fill-rule="evenodd"><path d="m19.38 31.12c1.31 0 2.11-.48 2.84-1.24l-.79-.8c-.6.56-1.15.9-2.01.9-1.34 0-2.31-1.11-2.31-2.48v-.02c0-1.37.98-2.46 2.3-2.46.81 0 1.4.34 1.97.86l.79-.91c-.67-.64-1.45-1.09-2.75-1.09-2.11 0-3.6 1.63-3.6 3.62v.02c0 2.01 1.51 3.6 3.56 3.6m11.41 0c1.63 0 2.83-1.25 2.83-2.75v-.02c0-1.51-1.19-2.74-2.81-2.74-1.62 0-2.82 1.25-2.82 2.76v.02c0 1.5 1.19 2.73 2.8 2.73m.02-1.06c-.94 0-1.61-.77-1.61-1.69v-.02c0-.92.62-1.68 1.59-1.68.95 0 1.62.77 1.62 1.7v.02c0 .91-.62 1.67-1.6 1.67m11.55 1.06c1.67 0 2.78-1.17 2.78-2.67 0-1.41-.9-2.41-2.45-2.41-.8 0-1.49.31-1.92.77.15-1.06.7-1.59 1.91-1.8l1.88-.3-.19-1.11-1.9.32c-1.94.33-2.84 1.52-2.84 3.98 0 1.16.3 1.95.85 2.5.41.41 1.06.72 1.88.72m.02-1.03c-.9 0-1.54-.66-1.54-1.58 0-.88.61-1.56 1.61-1.56.92 0 1.49.63 1.49 1.52 0 .93-.63 1.62-1.56 1.62m10.2-4.37h-1.21v5.28h2.35c1.4 0 2.19-.73 2.19-1.84v-.01c0-1.14-.82-1.8-2.1-1.8h-1.23v-1.63m-.01 2.61h1.14c.66 0 1 .34 1 .83v.01c0 .54-.35.83-1.01.83h-1.13v-1.67m4.18 2.67h1.21v-5.28h-1.21v5.28m9.18 0h1.21v-4.2h1.88v-1.08h-4.97v1.08h1.88v4.2m9.17 0h1.1l2.57-3.46v3.46h1.21v-5.28h-1.15l-2.52 3.38v-3.38h-1.21v5.28m12.43 0l1.29-1.8h.99v1.8h1.2v-5.28h-2.53c-1.31 0-2.15.6-2.15 1.76 0 .81.5 1.36 1.23 1.59l-1.42 1.93h1.39m2.28-4.33v1.63h-1.29c-.64 0-1-.32-1-.81v-.01c0-.51.39-.81 1.01-.81h1.28"/><path d="m11.319.806l-4.159 6.615-4.115-6.615h-3.045l5.837 9.05v5.89h2.605v-5.954l5.837-8.984z"/><path d="m17.933 6.504c-2.037 0-3.339 1.622-3.339 3.607 0 2.01 1.407 3.649 3.381 3.649 2.058 0 3.36-1.622 3.36-3.607 0-2.01-1.407-3.649-3.402-3.649m0 9.496c-3.381 0-5.88-2.624-5.88-5.847 0-3.244 2.52-5.911 5.922-5.911 3.402 0 5.901 2.625 5.901 5.869 0 3.223-2.52 5.89-5.943 5.89"/><path d="m32.905 4.476h2.541v11.268h-2.541v-1.75c-.714 1.067-1.743 1.985-3.465 1.985-2.499 0-3.948-1.707-3.948-4.332v-7.17h2.541v6.402c0 1.75.861 2.753 2.373 2.753 1.469 0 2.499-1.045 2.499-2.795v-6.359"/><path d="m48.529.806h2.791l-6.11 15.05h-2.267l-6.111-15.05h2.856l4.432 11.481z"/><path d="m58.57 9.32c-.168-1.665-1.134-2.966-2.814-2.966-1.554 0-2.645 1.216-2.877 2.966h5.691m-2.478 4.567c1.239 0 2.121-.47 3-1.345l1.491 1.345c-1.05 1.28-2.499 2.112-4.536 2.112-3.213 0-5.691-2.368-5.691-5.868 0-3.244 2.247-5.89 5.418-5.89 3.528 0 5.313 2.817 5.313 6.082 0 .235-.021.448-.042.704h-8.148c.294 1.835 1.554 2.86 3.192 2.86"/><path d="m65.35 15.744h-2.541v-11.268h2.541v2.539c.693-1.686 1.974-2.838 3.927-2.753v2.731h-.147c-2.226 0-3.78 1.472-3.78 4.46v4.289"/><path d="m74.861 15.958c-1.575 0-3.318-.576-4.704-1.686l1.134-1.75c1.197.917 2.499 1.387 3.633 1.387 1.092 0 1.722-.47 1.722-1.216v-.043c0-.875-1.176-1.174-2.478-1.579-1.637-.47-3.465-1.153-3.465-3.308v-.043c0-2.134 1.743-3.436 3.948-3.436 1.386 0 2.898.491 4.074 1.28l-1.01 1.835c-1.071-.662-2.205-1.067-3.129-1.067-.987 0-1.554.47-1.554 1.131v.042c0 .811 1.197 1.153 2.499 1.579 1.617.512 3.444 1.259 3.444 3.287v.043c0 2.369-1.806 3.543-4.116 3.543"/><path d="m80.87 4.476h2.541v11.268h-2.541v-11.268m-.105-4.183h2.73v2.454h-2.73v-2.454"/><path d="m91.16 6.504c-2.037 0-3.339 1.622-3.339 3.607 0 2.01 1.407 3.649 3.381 3.649 2.058 0 3.36-1.622 3.36-3.607 0-2.01-1.407-3.649-3.402-3.649m0 9.496c-3.381 0-5.88-2.624-5.88-5.847 0-3.244 2.52-5.911 5.922-5.911 3.402 0 5.901 2.625 5.901 5.869 0 3.223-2.52 5.89-5.943 5.89"/><path d="m101.38 15.744h-2.541v-11.268h2.541v1.75c.714-1.067 1.743-1.985 3.465-1.985 2.499 0 3.948 1.707 3.948 4.332v7.17h-2.541v-6.402c0-1.75-.861-2.753-2.373-2.753-1.469 0-2.499 1.045-2.499 2.795v6.359"/></g></svg>