<svg xmlns="http://www.w3.org/2000/svg" viewBox="-381.4 295 21 24" enable-background="new -381.4 295 21 24"><style type="text/css">.st0{display:none;fill:#888888;} .st1{fill:#888888;}</style><title>bookmarks-tab-icon copy 6</title><desc>Created with Sketch.</desc><path class="st0" d="M-377.4 295h14c1.7 0 3 1.3 3 3v21l-8.4-5-8.6 5v-24z"/><path class="st1" d="M-363.4 295h-15.5c-1.4 0-2.4 1.1-2.4 2.5v6.5h4v15l8.6-5 8.4 5v-21c-.1-1.7-1.5-3-3.1-3zm-17 8v-5.5c0-.8.7-1.5 1.5-1.5s1.5.7 1.5 1.5v5.5h-3zm19 14.2l-6.9-4.1-.5-.3-.5.3-7.1 4.1v-21.2h13c1.1 0 2 .9 2 2v19.2z"/></svg>