<?xml version="1.0" encoding="UTF-8"?>
<!DOCTYPE svg PUBLIC "-//W3C//DTD SVG 1.1//EN" "http://www.w3.org/Graphics/SVG/1.1/DTD/svg11.dtd">
<svg version="1.1" xmlns="http://www.w3.org/2000/svg" xmlns:xlink="http://www.w3.org/1999/xlink" width="24" height="24"  xml:space="preserve" id="ic_events_24dp">
    <!-- Generated by PaintCode - http://www.paintcodeapp.com -->
    <path id="ic_events_24dp-bezier" fill-rule="evenodd" stroke="none" fill="rgb(0, 0, 0)" d="M 6,9.3 C 6,12.25 7.85,15.87 11.54,20.14 L 11.54,20.14 C 11.9,20.56 12.54,20.61 12.95,20.25 12.99,20.22 13.02,20.18 13.06,20.14 16.75,15.87 18.6,12.25 18.6,9.3 18.6,5.82 15.78,3 12.3,3 8.82,3 6,5.82 6,9.3 Z M 12.3,11.55 C 11.06,11.55 10.05,10.54 10.05,9.3 10.05,8.06 11.06,7.05 12.3,7.05 13.54,7.05 14.55,8.06 14.55,9.3 14.55,10.54 13.54,11.55 12.3,11.55 L 12.3,11.55 Z M 12.3,11.55" />
</svg>
