<?xml version="1.0" encoding="utf-8"?>
<!-- Generator: Adobe Illustrator 19.0.0, SVG Export Plug-In . SVG Version: 6.00 Build 0)  -->
<!DOCTYPE svg PUBLIC "-//W3C//DTD SVG 1.1//EN" "http://www.w3.org/Graphics/SVG/1.1/DTD/svg11.dtd">
<svg version="1.1" id="Layer_1" xmlns:sketch="http://www.bohemiancoding.com/sketch/ns"
	 xmlns="http://www.w3.org/2000/svg" xmlns:xlink="http://www.w3.org/1999/xlink" x="0px" y="0px" viewBox="-383.6 295.4 24.3 22.1"
	 style="enable-background:new -383.6 295.4 24.3 22.1;" xml:space="preserve">
<style type="text/css">
	.st0{fill:#888888;}
</style>
<title>highlight</title>
<desc>Created with Sketch.</desc>
<path class="st0" d="M-360.1,299l-2.8-2.8c-1-1-2.6-1-3.5,0l-13.1,13.1l0.6,0.7l0,0l0.1,0.1l-4.8,4.8l2.8,2.8l4.4,0l2.6-2.6l0.1,0.1
	l0,0l0.6,0.6l13.1-13.1c0.5-0.5,0.7-1.1,0.7-1.8C-359.3,300.1-359.6,299.5-360.1,299z M-376.9,316.5l-3.5,0l-1.8-1.8l4.1-4.1
	l3.5,3.5L-376.9,316.5z M-360.8,301.8l-11.7,11.7l-5-4.9l11.7-11.7c0.6-0.6,1.5-0.6,2.1,0l2.8,2.8c0.3,0.3,0.4,0.7,0.4,1.1
	C-360.3,301.2-360.5,301.5-360.8,301.8z"/>
</svg>
