<svg xmlns="http://www.w3.org/2000/svg" viewBox="0 0 24 23" enable-background="new 0 0 24 23"><path class="line" d="M22.6 1c.2 0 .4.2.4.4v17c0 .2-.2.4-.4.4h-7.800000000000001l-.2.2-2.6 2.6-2.6-2.6-.3-.3h-7.7c-.2 0-.4-.2-.4-.4v-17c0-.1.2-.3.4-.3h21.2m0-1h-21.2c-.8 0-1.4.6-1.4 1.4v17c0 .8.6 1.4 1.4 1.4h7.4l3.2 3.2 3.3-3.3h7.4c.8 0 1.4-.6 1.4-1.4v-17c-.1-.7-.7-1.3-1.5-1.3z"/><path class="line" fill-rule="evenodd" clip-rule="evenodd" d="M20.2 9.8c-2-2.3-4.9-3.8-8.2-3.8s-6.2 1.5-8.2 3.8l-1.6-1.5c2.4-2.7 5.9-4.4 9.8-4.4s7.4 1.7 9.8 4.4l-1.6 1.5zM17.1 12.9c-1.2-1.5-3-2.5-5.1-2.5-2.1 0-3.9 1-5.1 2.5l-1.5-1.6c1.6-1.9 4-3.1 6.7-3.1s5.1 1.2 6.7 3.1l-1.7 1.6zM8.4 14.5c.8-1.1 2.1-1.8 3.6-1.8s2.8.7 3.6 1.8l-1.6 1.6c-.4-.7-1.1-1.2-2-1.2-.9 0-1.6.5-2 1.2l-1.6-1.6z"/>
<path class="fill" fill-rule="evenodd" clip-rule="evenodd" d="M20.2 9.8c-2-2.3-4.9-3.8-8.2-3.8s-6.2 1.5-8.2 3.8l-1.6-1.5c2.4-2.7 5.9-4.4 9.8-4.4s7.4 1.7 9.8 4.4l-1.6 1.5zm-3.1 3.1c-1.2-1.5-3-2.5-5.1-2.5-2.1 0-3.9 1-5.1 2.5l-1.5-1.6c1.6-1.9 4-3.1 6.7-3.1s5.1 1.2 6.7 3.1l-1.7 1.6zm-8.7 1.6c.8-1.1 2.1-1.8 3.6-1.8s2.8.7 3.6 1.8l-1.6 1.6c-.4-.7-1.1-1.2-2-1.2-.9 0-1.6.5-2 1.2l-1.6-1.6zm15.6-13.1c0-.8-.6-1.4-1.4-1.4h-21.2c-.8 0-1.4.6-1.4 1.4v17c0 .8.6 1.4 1.4 1.4h7.4l3.2 3.2 3.3-3.3h7.4c.8 0 1.4-.6 1.4-1.4v-16.9z"/>
</svg>