<svg xmlns:sketch="http://www.bohemiancoding.com/sketch/ns" xmlns="http://www.w3.org/2000/svg" viewBox="-365.6 283 35.5 47" enable-background="new -365.6 283 35.5 47"><title>icon-plans-youth-solid</title><desc>Created with Sketch.</desc><path sketch:type="MSShapeGroup" fill="#9D9D9D" d="M-340.9 283s-1 3.5-.3 8.8 1.6 6.8 5.8 12.6c4.3 5.8 7.2 10.4 3.6 17.3s-11.9 7.8-11.9 7.8 3.9-4 3.9-8-1.8-4.7-1.8-4.7-.7 1.8-2.3 3.9c-1.6 2.1-2.8 3.2-4.4 3.2s-3.9-.5-3.8-2.6c-.1-2.1 0-3.5 0-3.5s-5.1 1.2-4.8 5.1c.3 3.9.7 4.9 2.4 6.6 1.7 1.8-4.8-1.5-6.9-2.9-2.1-1.4-4.4-4.7-4.4-8.4s.4-7.4 3.8-12.1c3.4-4.7 4.2-8 4.2-9.8l-.2-2.6s3.1 1.8 3.9 3.6c.8 1.7.9 2.9.9 6s1 4.6 3.6 4.6 3-1.5 3.4-3.5c.4-2-.8-3.4-1.7-4.7-.8-1.3-.8-3.6-.4-6.1.4-2.5 1.1-4.8 3.2-7.2 2.3-2.4 4.2-3.4 4.2-3.4z"/></svg>