<?xml version="1.0" encoding="utf-8"?>
<!-- Generator: Adobe Illustrator 18.1.1, SVG Export Plug-In . SVG Version: 6.00 Build 0)  -->
<!DOCTYPE svg PUBLIC "-//W3C//DTD SVG 1.1//EN" "http://www.w3.org/Graphics/SVG/1.1/DTD/svg11.dtd">
<svg version="1.1" id="Layer_1" xmlns:sketch="http://www.bohemiancoding.com/sketch/ns"
	 xmlns="http://www.w3.org/2000/svg" xmlns:xlink="http://www.w3.org/1999/xlink" x="0px" y="0px" viewBox="266.2 490.4 88.2 90.4"
	 enable-background="new 266.2 490.4 88.2 90.4" xml:space="preserve">
<title>icon-plans-new-outline</title>
<desc>Created with Sketch.</desc>
<path fill="#9D9D9D" d="M310.3,496.5l4.7,8.4l1.6,2.9l2.7-1.9l7.9-5.5l0.6,9.6l0.2,3.3l3.3-0.5l9.5-1.5l-3.6,8.9l-1.2,3.1l3.2,0.9
	l9.2,2.7l-7.1,6.5l-2.4,2.2l2.4,2.2l7.1,6.5l-9.2,2.7L336,548l1.2,3.1l3.6,8.9l-9.5-1.5l-3.3-0.5l-0.2,3.3l-0.6,9.6l-7.9-5.5
	l-2.7-1.9l-1.6,2.9l-4.7,8.4l-4.7-8.4l-1.6-2.9l-2.7,1.9l-7.9,5.5l-0.6-9.6l-0.2-3.3l-3.3,0.5l-9.5,1.5l3.6-8.9l1.2-3.1l-3.2-0.9
	l-9.2-2.7l7.1-6.5l2.4-2.2l-2.4-2.2l-7.1-6.5l9.2-2.7l3.2-0.9l-1.2-3.1l-3.6-8.9l9.5,1.5l3.3,0.5l0.2-3.3l0.6-9.6l7.9,5.5l2.7,1.9
	l1.6-2.9L310.3,496.5 M310.3,490.4l-7.3,13l-12.3-8.6l-1,14.9l-14.8-2.4l5.6,13.9l-14.3,4.3l11.1,10.1l-11.1,10.1l14.3,4.3
	l-5.6,13.9l14.8-2.4l1,14.9l12.3-8.6l7.3,13l7.3-13l12.3,8.6l1-14.9l14.8,2.4l-5.6-13.9l14.3-4.3l-11.1-10.1l11.1-10.1l-14.3-4.3
	l5.6-13.9l-14.8,2.4l-1-14.9l-12.3,8.6L310.3,490.4L310.3,490.4z"/>
</svg>
