<svg xmlns="http://www.w3.org/2000/svg" viewBox="-371 288 48 43" enable-background="new -371 288 48 43"><title>icon-plans-devo-outline</title><desc>Created with Sketch.</desc><path fill="#9E9D9D" d="M-326.5 291.7c-4.7-4.9-12.3-4.9-17 0l-2.1 2.2.1.1h-.1l-1.3 1.4-1.3-1.4h-.1l.1-.1-2.1-2.2c-4.7-4.9-12.3-4.9-17 0-4.7 4.9-4.7 12.9 0 17.8l19.1 20.1 1.3 1.4 1.4-1.4 19.1-20.1c4.6-4.9 4.6-12.9-.1-17.8zm-20.5 36.4l-19-20c-4-4.1-4-10.9 0-15.1 3.9-4.1 10.2-4.1 14.1 0l3.5 3.7 1.4 1.5 1.4-1.5 3.5-3.7c3.9-4.1 10.2-4.1 14.1 0 3.9 4.1 3.9 10.9 0 15.1l-19 20z"/></svg>