<svg xmlns:sketch="http://www.bohemiancoding.com/sketch/ns" xmlns="http://www.w3.org/2000/svg" viewBox="-389 299 13 15" enable-background="new -389 299 13 15"><title>Untitled 2</title><desc>Created with Sketch.</desc><path sketch:type="MSShapeGroup" fill="#888" d="M-380 299.5v2.1c0 .3.2.5.5.5s.5-.2.5-.5v-2.1c0-.3-.2-.5-.5-.5s-.5.2-.5.5zm-6 0v2.1c0 .3.2.5.5.5s.5-.2.5-.5v-2.1c0-.3-.2-.5-.5-.5s-.5.2-.5.5zm8 3.6h-3v-2h-3v2h-3v-2h-1.1c-.5 0-.9.4-.9 1v11c0 .5.4 1 .9 1h11.1c.5 0 .9-.5.9-1v-11c0-.6-.4-1-.9-1h-1.1v2zm-10 2h11v1h-11v-1zm9 1.9h1v1h-1v-1zm-2 0h1v1h-1v-1zm-2 0h1v1h-1v-1zm-2 0h1v1h-1v-1zm-2 0h1v1h-1v-1zm8 2h1v1h-1v-1zm-2 0h1v1h-1v-1zm-2 0h1v1h-1v-1zm-4 0h1v1h-1v-1zm8 2h1v1h-1v-1zm-2 0h1v1h-1v-1zm-2 0h1v1h-1v-1zm-2 0h1v1h-1v-1zm-2 0h1v1h-1v-1z"/></svg>