<svg xmlns:sketch="http://www.bohemiancoding.com/sketch/ns" xmlns="http://www.w3.org/2000/svg" viewBox="-366.6 281.1 37.5 49.9" enable-background="new -366.6 281.1 37.5 49.9"><title>icon-plans-youth-outline</title><desc>Created with Sketch.</desc><path fill="#9D9D9D" d="M-354.2 331c-1.3 0-6.3-2.7-7.6-3.6-2.3-1.5-4.8-5.1-4.8-9.2 0-3.6.3-7.6 4-12.7 3.5-4.8 4-7.8 4-9.2 0-1.6-.1-2.3-.1-2.4l-.4-2.2 1.9 1.1c.4.2 3.4 2.1 4.3 4 .9 1.9 1 3.3 1 6.4 0 3 .9 3.6 2.6 3.6 1.7 0 1.9-.6 2.4-2.7.3-1.3-.4-2.4-1.2-3.5l-.3-.5c-.9-1.4-1.1-3.6-.6-6.8.5-2.8 1.2-5.2 3.4-7.7s4.3-3.6 4.4-3.7l2.1-1-.6 2.2s-1 3.4-.2 8.3c.7 4.9 1.4 6.4 5.7 12.2 3.8 5.2 7.8 10.5 3.7 18.3-3.8 7.3-12.3 8.3-12.7 8.3l-2.8.3 2-2s3.6-3.7 3.6-7.2c0-1.4-.3-2.4-.5-2.9-.4.7-1 1.7-1.8 2.8-1.7 2.2-3.1 3.6-5.2 3.6-1 0-2.9-.2-4-1.3-.6-.6-.8-1.4-.8-2.3 0-.8-.1-1.6 0-2.1-1.2.5-2.9 1.6-2.7 3.6.3 3.9.7 4.5 2.2 6 .2.2.8.8.5 1.5-.6.5-.9.8-1.5.8zm-2.4-35.2v.5c0 1.6-.6 5.2-4.4 10.4-3.3 4.6-3.6 8.1-3.6 11.5 0 3.2 2 6.2 3.9 7.5 1 .6 2.5 1.5 3.9 2.2-.6-1.2-.8-2.6-1-5-.3-3.8 3.5-5.7 5.6-6.1l1.3-.3-.1 1.4s-.1 1.4 0 3.4v.2c0 .5.1.7.3.8.4.4 1.4.7 2.5.7s2-.7 3.6-2.8c1.5-2 2.2-3.7 2.2-3.7l.4-.9.9.3c.2.1 2.4 1 2.4 5.6 0 2.4-1.2 4.7-2.3 6.3 2.6-.8 6.4-2.7 8.4-6.6 3.3-6.2.8-10.3-3.5-16.2-4.5-6.1-5.2-7.8-6-13.1-.4-2.8-.3-5.1-.1-6.7-.6.5-1.2 1.1-1.9 1.9-1.9 2.2-2.5 4.2-2.9 6.7-.5 3.3-.2 4.8.3 5.4l.3.5c.9 1.3 1.9 2.9 1.5 5-.4 1.9-.9 4.3-4.3 4.3-4.6 0-4.6-4.2-4.6-5.6 0-3.1-.1-4.1-.8-5.6-.5-.6-1.2-1.3-2-2z" sketch:type="MSArtboardGroup"/></svg>