<svg xmlns:sketch="http://www.bohemiancoding.com/sketch/ns" xmlns="http://www.w3.org/2000/svg" viewBox="-370 282 46 50" enable-background="new -370 282 46 50"><title>icon-plans-partialbible-outline</title><desc>Created with Sketch.</desc><g sketch:type="MSArtboardGroup"><path fill="#979797" d="M-347 332c-12.7 0-23-10.3-23-23s10.3-23 23-23c.7 0 1.4 0 2.1.1l.9.1v17.8l14.3-10.3.6.7c3.3 4.1 5.2 9.2 5.2 14.5-.1 12.8-10.4 23.1-23.1 23.1zm0-44c-11.6 0-21 9.4-21 21s9.4 21 21 21 21-9.4 21-21c0-4.5-1.5-8.9-4.1-12.5l-15.9 11.5v-20h-1z"/><path sketch:type="MSShapeGroup" stroke="#979797" stroke-width="2" d="M-347 283v27l20.7-15.1c-4.1-7.1-11.9-11.9-20.7-11.9z" fill="none"/><path sketch:type="MSShapeGroup" fill="#fff" d="M-347 283v27l20.7-15.1c-4.1-7.1-11.9-11.9-20.7-11.9z"/><path fill="#979797" d="M-348 312v-30h1c8.8 0 17.1 4.7 21.6 12.4l.5.8-23.1 16.8zm2-28v24l18.4-13.4c-4-6.3-10.9-10.3-18.4-10.6z"/></g></svg>