<?xml version="1.0" encoding="UTF-8" standalone="no"?>
<svg width="48px" height="48px" viewBox="0 0 48 48" version="1.1" xmlns="http://www.w3.org/2000/svg" xmlns:xlink="http://www.w3.org/1999/xlink" xmlns:sketch="http://www.bohemiancoding.com/sketch/ns">
    <!-- Generator: Sketch 3.3.2 (12043) - http://www.bohemiancoding.com/sketch -->
    <title>icon-plans-family-solid</title>
    <desc>Created with Sketch.</desc>
    <defs></defs>
    <g id="Page-1" stroke="none" stroke-width="1" fill="none" fill-rule="evenodd" sketch:type="MSPage">
        <g id="icon-plans-family-solid" sketch:type="MSArtboardGroup" fill="#9D9D9D">
            <g id="Oval-155-+-Tree" sketch:type="MSLayerGroup" transform="translate(1.000000, 0.000000)">
                <path d="M20.6039355,32.1000878 C20.6039355,32.1000878 19.8531791,34.2501846 17.4885764,34.6653713 C15.1239738,35.080558 13.7037457,33.9510831 13.7037457,33.9510831 C13.7037457,33.9510831 11.7694998,36.8776191 8.87704443,35.9248973 C5.98458907,34.9721756 6.24541142,33.8838094 5.85993583,32.1855109 C3.88725769,32.1855098 0.608397026,32.4566791 0.0394311012,27.8452293 C-0.529534823,23.2337795 5.24701197,20.7550275 5.24701197,20.7550275 C5.24701197,20.7550275 -0.238359248,20.9582749 0.0394310935,16.1441154 C0.317221435,11.329956 4.5015572,11.9605609 4.5015572,11.9605609 C4.5015572,11.9605609 2.17135976,7.88404921 6.27375898,6.0630607 C10.3761582,4.24207219 12.4876443,6.72393207 12.4876443,6.72393207 C12.4876443,6.72393207 13.0385659,3.05308412 17.4885757,2.73147711 C17.6005022,2.72338806 17.7069752,2.71425189 17.8082568,2.70412637 C18.310037,2.21937201 19.6167736,-1.0672603 24.4182665,0.353775885 C29.2197594,1.77481207 29.3257301,5.28957259 30.4442918,7.40433906 C31.5206045,6.38155971 34.9580047,3.17251734 38.0982479,7.16776876 C41.238491,11.1630202 38.6886,14.5644995 38.6886,14.5644995 C38.6886,14.5644995 44.4435414,14.0418484 45.6569814,18.6219676 C46.8704214,23.2020867 44.6132327,24.7270811 42.8027352,25.3722313 C44.5734008,26.5222146 44.5302371,30.0691163 41.8139381,32.1855121 C39.0976391,34.3019079 35.9194588,31.9420671 35.9194588,31.9420671 C35.9194588,31.9420671 28.8998563,33.3667385 26.2002658,30.2416562 C26.2002677,31.8163648 26.2002658,36.7338946 26.2002658,40.6617578 C26.2002658,44.589621 30.122533,45.2156582 33.547499,45.5001419 C36.9724649,45.7846256 36.691492,48 36.691492,48 L12.764991,48 C12.764991,48 11.6736239,46.6643651 15.2045003,45.5001425 C18.7353768,44.3359199 22.4957186,45.4948187 21.9787227,40.6617582 C21.4617268,35.8286976 21.9787231,29.9208063 21.9787231,29.9208063 L20.6039355,32.1000878 Z" id="Path-440" sketch:type="MSShapeGroup"></path>
            </g>
        </g>
    </g>
</svg>