<svg xmlns:sketch="http://www.bohemiancoding.com/sketch/ns" xmlns="http://www.w3.org/2000/svg" viewBox="-291 385 24 23" enable-background="new -291 385 24 23"><title>Untitled 2</title><desc>Created with Sketch.</desc><path fill="#888" d="M-273.6 395.3c-.4 3-3.2 5-6.2 4.6-2.5-.4-4.3-2.3-4.6-4.6l-.5-3.5c-.5-3.3 1.8-6.3 5.1-6.8s6.3 1.8 6.8 5c.1.6.1 1.2 0 1.7l-.6 3.6zm-17.4 12.7v-1.3c0-1.8 1.3-3.4 3-3.7 2.2-.4 5.4-.9 8.7-.9 3.5 0 7 .6 9.3 1.2 1.7.4 2.9 1.9 2.9 3.7v1.1h-23.9v-.1z" sketch:type="MSShapeGroup"/></svg>