<?xml version="1.0" encoding="UTF-8"?>
<!DOCTYPE svg PUBLIC "-//W3C//DTD SVG 1.1//EN" "http://www.w3.org/Graphics/SVG/1.1/DTD/svg11.dtd">
<svg version="1.1" xmlns="http://www.w3.org/2000/svg" xmlns:xlink="http://www.w3.org/1999/xlink" width="24" height="24"  xml:space="preserve" id="ic_me_24dp">
    <!-- Generated by PaintCode - http://www.paintcodeapp.com -->
    <path id="ic_me_24dp-bezier" fill-rule="evenodd" stroke="none" fill="rgb(0, 0, 0)" d="M 12.01,13.96 C 10.17,13.7 8.8,12.28 8.54,10.57 L 8.15,8.01 C 7.8,5.62 9.5,3.4 11.96,3.05 14.42,2.7 16.7,4.35 17.06,6.75 17.12,7.17 17.12,7.61 17.06,8.01 L 16.68,10.57 C 16.35,12.76 14.26,14.28 12.01,13.96 Z M 12.5,16 C 17.95,16 21.06,17.24 21.82,19.71 21.98,20.23 21.68,20.79 21.15,20.96 21.06,20.99 20.96,21 20.86,21 L 4.14,21 C 3.59,21 3.14,20.55 3.14,20 3.14,19.9 3.15,19.8 3.18,19.71 3.94,17.24 7.05,16 12.5,16 Z M 12.5,16" />
</svg>
