<svg xmlns:sketch="http://www.bohemiancoding.com/sketch/ns" xmlns="http://www.w3.org/2000/svg" viewBox="-382.5 294.5 23 25" enable-background="new -382.5 294.5 23 25"><style type="text/css">.st0{fill:#979797;}</style><title>notes-tab-icon copy</title><desc>Created with Sketch.</desc><g id="Group" sketch:type="MSLayerGroup"><path class="st0" d="M-366.8 319.5h-14.2c-.8 0-1.5-.7-1.5-1.5v-22c0-.8.7-1.5 1.5-1.5h20c.8 0 1.5.7 1.5 1.5v17.2l-7.3 6.3zm-14.2-24c-.3 0-.5.2-.5.5v22c0 .3.2.5.5.5h13.8l6.7-5.7v-16.8c0-.3-.2-.5-.5-.5h-20zM-380 299h18v1h-18zM-380 302h18v1h-18z"/><path id="Shape" sketch:type="MSShapeGroup" class="st0" d="M-366 312c-1.3 0-2 .7-2 2v5h1v-5c.1-.7.3-.9 1-1h6.5v-1h-6.5z"/></g></svg>