<svg viewBox="0 0 109 33" xmlns="http://www.w3.org/2000/svg"><g fill="#636363" fill-rule="evenodd"><path d="m6.912 30h2.592c1.248 0 2.072-.536 2.072-1.536v-.016c0-.76-.456-1.136-1.112-1.36.416-.216.8-.576.8-1.248v-.016c0-.368-.128-.68-.376-.928-.32-.32-.824-.496-1.464-.496h-2.512v5.6m3.368-4c0 .512-.424.76-1.056.76h-1.344v-1.488h1.416c.632 0 .984.272.984.712v.016m.312 2.344v.016c0 .504-.416.768-1.08.768h-1.632v-1.536h1.56c.776 0 1.152.28 1.152.752m4.552 1.656h.984v-5.6h-.984v5.6m6.12.08c.56 0 1.032-.168 1.36-.496.328-.328.528-.824.528-1.488v-3.696h-1.016v3.664c0 .752-.36 1.104-.888 1.104-.472 0-.8-.24-1.128-.664l-.648.672c.368.504.928.904 1.792.904m5.64-.08h4.192v-.88h-3.208v-1.496h2.808v-.888h-2.808v-1.456h3.168v-.88h-4.152v5.6m7.76 0h4.192v-.88h-3.208v-1.496h2.808v-.888h-2.808v-1.456h3.168v-.88h-4.152v5.6m7.76 0h.968v-3.984l3.088 3.984h.824v-5.6h-.968v3.872l-3-3.872h-.912v5.6m8.72 0h.984v-1.624l.872-.896 1.912 2.52h1.2l-2.44-3.192 2.336-2.408h-1.224l-2.656 2.816v-2.816h-.984v5.6m10.464.096c1.72 0 2.936-1.32 2.936-2.896v-.016c0-1.576-1.2-2.88-2.92-2.88-1.72 0-2.936 1.32-2.936 2.896v.016c0 1.576 1.2 2.88 2.92 2.88m.016-.912c-1.112 0-1.904-.896-1.904-1.984v-.016c0-1.088.776-1.968 1.888-1.968 1.112 0 1.904.896 1.904 1.984v.016c0 1.088-.776 1.968-1.888 1.968m6.512.816h.968v-4l1.752 2.624h.032l1.768-2.64v4.02h.984v-5.6h-1.048l-1.704 2.648-1.704-2.648h-1.048v5.6m11.304.08c1.176 0 2-.624 2-1.672v-.016c0-.928-.608-1.352-1.792-1.64-1.08-.256-1.336-.448-1.336-.88v-.016c0-.368.336-.664.912-.664.512 0 1.016.2 1.52.576l.528-.744c-.568-.456-1.216-.704-2.032-.704-1.112 0-1.912.664-1.912 1.624v.016c0 1.032.672 1.384 1.864 1.672 1.04.24 1.264.456 1.264.856v.016c0 .416-.384.704-.992.704-.688 0-1.232-.264-1.768-.728l-.592.704c.672.6 1.48.896 2.336.896m6.816-.08h.984v-4.688h1.784v-.912h-4.552v.912h1.784v4.688m6.192 0h4.192v-.88h-3.208v-1.496h2.808v-.888h-2.808v-1.456h3.168v-.88h-4.152v5.6m7.76 0h.968v-3.984l3.088 3.984h.824v-5.6h-.968v3.872l-3-3.872h-.912v5.6"/><path d="m11.319.806l-4.159 6.615-4.115-6.615h-3.045l5.837 9.05v5.89h2.605v-5.954l5.837-8.984z"/><path d="m17.933 6.504c-2.037 0-3.339 1.622-3.339 3.607 0 2.01 1.407 3.649 3.381 3.649 2.058 0 3.36-1.622 3.36-3.607 0-2.01-1.407-3.649-3.402-3.649m0 9.496c-3.381 0-5.88-2.624-5.88-5.847 0-3.244 2.52-5.911 5.922-5.911 3.402 0 5.901 2.625 5.901 5.869 0 3.223-2.52 5.89-5.943 5.89"/><path d="m32.905 4.476h2.541v11.268h-2.541v-1.75c-.714 1.067-1.743 1.985-3.465 1.985-2.499 0-3.948-1.707-3.948-4.332v-7.17h2.541v6.402c0 1.75.861 2.753 2.373 2.753 1.469 0 2.499-1.045 2.499-2.795v-6.359"/><path d="m48.529.806h2.791l-6.11 15.05h-2.267l-6.111-15.05h2.856l4.432 11.481z"/><path d="m58.57 9.32c-.168-1.665-1.134-2.966-2.814-2.966-1.554 0-2.645 1.216-2.877 2.966h5.691m-2.478 4.567c1.239 0 2.121-.47 3-1.345l1.491 1.345c-1.05 1.28-2.499 2.112-4.536 2.112-3.213 0-5.691-2.368-5.691-5.868 0-3.244 2.247-5.89 5.418-5.89 3.528 0 5.313 2.817 5.313 6.082 0 .235-.021.448-.042.704h-8.148c.294 1.835 1.554 2.86 3.192 2.86"/><path d="m65.35 15.744h-2.541v-11.268h2.541v2.539c.693-1.686 1.974-2.838 3.927-2.753v2.731h-.147c-2.226 0-3.78 1.472-3.78 4.46v4.289"/><path d="m74.861 15.958c-1.575 0-3.318-.576-4.704-1.686l1.134-1.75c1.197.917 2.499 1.387 3.633 1.387 1.092 0 1.722-.47 1.722-1.216v-.043c0-.875-1.176-1.174-2.478-1.579-1.637-.47-3.465-1.153-3.465-3.308v-.043c0-2.134 1.743-3.436 3.948-3.436 1.386 0 2.898.491 4.074 1.28l-1.01 1.835c-1.071-.662-2.205-1.067-3.129-1.067-.987 0-1.554.47-1.554 1.131v.042c0 .811 1.197 1.153 2.499 1.579 1.617.512 3.444 1.259 3.444 3.287v.043c0 2.369-1.806 3.543-4.116 3.543"/><path d="m80.87 4.476h2.541v11.268h-2.541v-11.268m-.105-4.183h2.73v2.454h-2.73v-2.454"/><path d="m91.16 6.504c-2.037 0-3.339 1.622-3.339 3.607 0 2.01 1.407 3.649 3.381 3.649 2.058 0 3.36-1.622 3.36-3.607 0-2.01-1.407-3.649-3.402-3.649m0 9.496c-3.381 0-5.88-2.624-5.88-5.847 0-3.244 2.52-5.911 5.922-5.911 3.402 0 5.901 2.625 5.901 5.869 0 3.223-2.52 5.89-5.943 5.89"/><path d="m101.38 15.744h-2.541v-11.268h2.541v1.75c.714-1.067 1.743-1.985 3.465-1.985 2.499 0 3.948 1.707 3.948 4.332v7.17h-2.541v-6.402c0-1.75-.861-2.753-2.373-2.753-1.469 0-2.499 1.045-2.499 2.795v6.359"/></g></svg>