<svg xmlns="http://www.w3.org/2000/svg" xmlns:xlink="http://www.w3.org/1999/xlink" version="1.1" id="Layer_1" x="0px" y="0px" viewBox="0 0 105.1 105.1" enable-background="new 0 0 105.1 105.1" xml:space="preserve">
<path fill-rule="evenodd" clip-rule="evenodd" fill="#3B5999" d="M9.9 0C4.4 0 0 4.4 0 9.9v85.4c0 5.4 4.4 9.9 9.9 9.9h46V62.4H46 V49.3h9.9V34.2c0-2.1-0.4-17.8 18-17.8h11.6v13.1h-9.3c-1.9 0-3.8 2-3.8 3.4v16.3h13.3c-0.5 7.5-2.5 13.1-2.5 13.1H72.3v42.7h23 c5.4 0 9.9-4.4 9.9-9.9V9.9c0-5.4-4.4-9.9-9.9-9.9H9.9z"/>
</svg>
