<?xml version="1.0" encoding="utf-8"?>
<!-- Generator: Adobe Illustrator 18.1.1, SVG Export Plug-In . SVG Version: 6.00 Build 0)  -->
<!DOCTYPE svg PUBLIC "-//W3C//DTD SVG 1.1//EN" "http://www.w3.org/Graphics/SVG/1.1/DTD/svg11.dtd">
<svg version="1.1" id="Layer_1" xmlns="http://www.w3.org/2000/svg" xmlns:xlink="http://www.w3.org/1999/xlink" x="0px" y="0px"
	 viewBox="0 0 240.8 32.4" enable-background="new 0 0 240.8 32.4" xml:space="preserve">
<g>
	<path fill="#FFFFFF" d="M48.5,22C48.5,22.1,48.5,22.1,48.5,22c0.1,0.1,0,0.1,0,0.1c-4,0.2-6.9,0.6-8.6,1l-0.7-0.5
		c0,1.1-0.1,1.7-0.3,1.7c0,0-0.1,0-0.1-0.1l-0.6-1.2c0.3-0.6,0.4-1.5,0.4-2.5v-3.3c-1.1,1.2-2.2,2.3-3.5,3.2l-0.2-0.2
		c1.2-1.1,2.2-2,3-2.9c0.8-0.9,1.6-2,2.4-3.4c-1.7,0.2-2.8,0.3-3.5,0.5l-0.9-0.6l4.7-0.4c0.8-1.5,1.2-2.7,1.2-3.6c0-0.2,0-0.3,0-0.5
		L41.9,9l1,1.1c0,0.1,0.1,0.1,0.1,0.1c0,0,0,0.1,0,0.1c-0.2,0.2-0.4,0.5-0.6,0.9c-0.4,0.8-0.7,1.4-1,2c3-0.3,4.8-0.5,5.6-0.8
		l0.7,0.6c0.1,0,0.1,0.1,0.1,0.1c0,0,0,0-0.1,0.1L41,13.7c-0.6,1.1-1.2,2-1.9,2.8v6l3.9-0.4v-3.6c-1.1,0.1-1.9,0.3-2.5,0.4l-0.7-0.5
		L43,18c0-1.3,0-2.2-0.1-2.6c0-0.4-0.1-0.8-0.3-1.1l0.1-0.2l1.1,0.8C43.9,15,44,15,44,15c0,0,0,0.1,0,0.1c-0.2,0.4-0.3,1.4-0.3,2.8
		c1.2-0.2,2.1-0.4,2.8-0.6l0.6,0.6c0,0,0,0.1,0,0.1c0,0,0,0-0.1,0.1l-3.4,0.4V22c2-0.2,3.4-0.4,4.1-0.7L48.5,22z"/>
	<path fill="#FFFFFF" d="M58.4,20.3c-1.8,0.8-3.2,1.5-4,1.9c-0.9,0.4-1.5,0.8-1.8,1.1l-0.9-0.6l1.8-0.7l-0.1-4.6
		c0-1.7-0.2-2.8-0.6-3.3l0.2-0.2l1.1,0.9c0,0,0,0,0,0.1c0,0,0,0.1-0.1,0.1c0,0.1-0.1,0.2-0.1,0.3c0,0.2,0,0.6,0,1.2l0.1,5.2l1.6-0.7
		v-6.9c0-1.2,0-2.1-0.1-2.6c-0.1-0.5-0.2-0.9-0.4-1.2l0.2-0.1l1.1,1c0,0,0,0.1,0,0.1c0,0,0,0.1-0.1,0.2c-0.1,0.1-0.1,0.3-0.1,0.5
		c0,0.3,0,0.8,0,1.6v2.2c0.9-0.2,1.4-0.3,1.6-0.5l0.5,0.5c0,0,0.1,0.1,0.1,0.1c0,0,0,0-0.1,0.1l-2.1,0.4v4.4l2.1-0.8L58.4,20.3z
		 M64,19.3c0.1,0.9,0.2,1.7,0.3,2.3l0.3,1.5c0,0,0,0.1-0.1,0.1c-0.1,0-0.4,0.1-0.9,0.2c-0.5,0.1-1.1,0.1-1.7,0.1
		c-1.1,0-1.9-0.1-2.4-0.4c-0.4-0.3-0.7-0.9-0.7-1.9v-8.9c0-0.8,0-1.4-0.1-1.7c-0.1-0.4-0.2-0.7-0.4-1l0.2-0.1l1.2,0.9
		c0,0,0.1,0.1,0.1,0.1c0,0,0,0.1,0,0.1c-0.1,0.2-0.2,0.5-0.3,1c0,0.5-0.1,1.3-0.1,2.2v3.6c1.9-1.4,2.9-2.5,3-3.5l0.2,0l0.4,1.4
		c0,0,0,0.1,0,0.1c0,0,0,0.1-0.1,0.1c-0.1,0-0.2,0.1-0.4,0.2S62.2,15.8,62,16c-0.6,0.5-1.5,1.1-2.6,1.8v3.1c0,0.7,0.1,1.3,0.4,1.6
		c0.3,0.3,0.8,0.4,1.7,0.4s1.6-0.1,2.1-0.2l0.1-3.3H64z"/>
	<path fill="#FFFFFF" d="M80.1,11.5c0.1,0,0.1,0.1,0.1,0.1c0,0,0,0.1-0.1,0.1l-6.4,0.4l0.6,0.6c0,0,0,0.1,0,0.1s0,0,0,0.1
		c-0.1,0.2-0.2,0.7-0.2,1.5v7.8c0,1,0,1.6-0.1,1.8c0,0.2-0.1,0.3-0.1,0.3c0,0-0.1,0-0.1-0.1l-0.8-1.2c0.3-0.5,0.4-1.3,0.4-2.5v-6.2
		c0-1.2-0.1-2-0.2-2.3c-1.8,0.1-3.4,0.3-4.6,0.5L67.8,12c3.5-0.2,6.1-0.4,8.1-0.6c1.9-0.2,3.1-0.4,3.4-0.6L80.1,11.5z M79.2,16.9
		c0.1,0.4,0.1,0.7,0.1,1c0,0.3,0,0.4-0.1,0.4c0,0-0.1,0-0.1-0.1c-0.4-0.4-0.9-0.8-1.5-1.2s-1.5-1-2.8-1.8l0.1-0.2L79.2,16.9z"/>
	<path fill="#FFFFFF" d="M96.2,20.5c0,0.5,0,1.2,0.1,1.9l0.1,1.6c0,0.1,0,0.1-0.1,0.1c-0.2,0-0.6-0.2-1.1-0.6
		c-0.5-0.4-1.1-0.9-1.5-1.5c-0.5-0.7-0.8-1.4-1.1-2.1c-0.7,0.8-1.5,1.6-2.5,2.4l-0.2-0.2c1.1-1,2-1.9,2.5-2.8
		c-0.4-1.7-0.7-3.4-0.8-5.1l-3.8,0.4l0.5,0.7c0,0,0,0.1,0,0.1c0,0,0,0.1-0.1,0.1c-0.1,0.1-0.3,0.4-0.5,0.7c1.3-0.2,2.1-0.4,2.5-0.6
		l0.6,0.5c0,0,0,0.1,0,0.1c0,0,0,0-0.1,0.1l-3.3,0.4l-1.2,2.1l1.7-0.3c0-0.7-0.1-1.1-0.2-1.4l0.2-0.1l0.8,0.7
		c-0.1,0.1-0.2,0.4-0.3,0.7c0.9-0.2,1.5-0.3,1.7-0.5l0.5,0.4c0.1,0,0.1,0.1,0.1,0.1s0,0.1-0.1,0.1l-2.2,0.4v1.6l2.3-0.5l0,0.2
		l-2.4,0.8v1.4c0,0.7,0,1.2,0,1.4c0,0.2-0.1,0.3-0.1,0.3s-0.1,0-0.1-0.1l-0.6-0.8c0.1-0.1,0.2-0.4,0.2-0.6c0-0.3,0.1-0.8,0.1-1.5
		c-1.2,0.4-2.1,0.7-2.6,1l-0.8-0.7l3.5-0.8v-1.6l-1.4,0.3c-0.2,0-0.4,0.1-0.5,0.1c-0.1,0-0.2,0.1-0.3,0.1c-0.1,0.1-0.1,0.1-0.2,0.1
		c0,0-0.1,0-0.1,0L85.3,19c0.3-0.2,0.6-0.4,0.8-0.7c0.2-0.3,0.5-0.8,0.8-1.5c-0.6,0.1-1.2,0.2-1.6,0.3l-0.7-0.5l2.5-0.3
		c0.3-0.6,0.4-1,0.4-1.4c0-0.1,0-0.2,0-0.3c-1.4,0.1-2.5,0.3-3.2,0.4l-0.7-0.6l4.4-0.4v-1.5c-1.1,0.1-1.8,0.3-2.2,0.4l-0.6-0.5
		l2.8-0.4c0-1.2-0.1-2.1-0.4-2.5l0.2-0.2l1,0.8c0.1,0,0.1,0.1,0.1,0.1c0,0,0,0.1-0.1,0.1c-0.2,0.2-0.3,0.8-0.3,1.7
		c0.7-0.1,1.1-0.2,1.4-0.4l0.6,0.4c0.1,0,0.1,0.1,0.1,0.1c0,0,0,0.1-0.1,0.1l-2,0.3V14l3.1-0.3c-0.1-1.2-0.1-2.2-0.2-2.8
		c-0.1-0.6-0.2-1.1-0.4-1.5l0.2-0.2l1.1,0.9c0,0,0.1,0.1,0.1,0.1s0,0.1,0,0.1c-0.1,0.2-0.1,0.5-0.1,0.9c0,0.4,0,1.2,0.1,2.4
		c1.5-0.2,2.6-0.4,3.1-0.6l0.8,0.6c0,0,0.1,0.1,0.1,0.1c0,0,0,0-0.1,0.1l-3.8,0.4c0.1,1.8,0.3,3.3,0.6,4.5c0.4-0.6,0.7-1.1,0.9-1.6
		c0.2-0.5,0.3-0.9,0.3-1.3c0-0.1,0-0.2,0-0.4l0.3-0.1l0.6,1.1c0,0.1,0,0.1,0,0.1s0,0-0.1,0.1c-0.2,0.1-0.5,0.4-0.8,1.1
		c-0.3,0.6-0.7,1.1-1.1,1.6c0.5,1.7,1.4,2.9,2.6,3.7l0.3-2.5H96.2z M94.8,11.3c0,0.4,0,0.6,0,0.8c0,0.2-0.1,0.3-0.1,0.3
		s-0.1,0-0.1-0.1L93,10.5l0.1-0.1L94.8,11.3z"/>
	<path fill="#FFFFFF" d="M112.3,16.6c0.1,0,0.1,0.1,0.1,0.1c0,0,0,0.1-0.1,0.1l-3.7,0.3c-0.5,1.4-1.1,2.5-1.8,3.4
		c0.9,0.4,2.1,1,3.4,1.7c0.1,0.4,0.1,0.8,0.1,1c0,0.2,0,0.4-0.1,0.4c0,0-0.1,0-0.1,0c-1.2-1-2.4-1.9-3.6-2.6c-0.7,0.7-1.5,1.4-2.6,2
		s-2.2,0.9-3.3,1.1l-0.1-0.3c2.3-0.6,4.1-1.7,5.4-3.1c-1-0.6-2-1-3-1.2c0.2-0.4,0.6-1.1,1-2c-1.5,0.1-2.7,0.3-3.6,0.5l-0.8-0.6
		l4.7-0.4c0.9-1.8,1.3-3,1.3-3.7h0.2l0.6,1.1c0,0.1,0,0.1,0,0.1c0,0,0,0.1-0.1,0.1c-0.3,0.1-0.7,0.9-1.3,2.3c3.7-0.3,6-0.6,6.7-0.9
		L112.3,16.6z M111.2,12.1c0,0,0,0.1,0,0.1c0,0,0,0.1-0.1,0.1c-0.2,0.1-0.4,0.3-0.7,0.6c-0.3,0.3-0.6,0.8-1.1,1.5l-0.3-0.1l0.8-1.7
		l-8,0.8c-0.1,0.4-0.2,0.9-0.4,1.3c-0.2,0.4-0.3,0.6-0.4,0.6c0,0-0.1,0-0.1-0.1l-0.4-0.9c0.5-0.5,0.8-1.4,0.9-2.8l0.3,0
		c0,0.5,0.1,0.9,0,1.3l8-0.9l0.6-0.6L111.2,12.1z M107.7,17.1l-3.1,0.3l-0.9,1.8c0.9,0.3,1.7,0.7,2.5,1
		C106.8,19.3,107.3,18.3,107.7,17.1z M107,10.9c-0.1,0.3-0.2,0.5-0.3,0.8c-0.1,0.2-0.2,0.3-0.3,0.3s-0.1-0.1-0.2-0.2l-0.9-2.4
		l0.2-0.1L107,10.9z"/>
	<path fill="#FFFFFF" d="M128.6,19.5c0.1,0.1,0.1,0.1,0.1,0.1s0,0-0.1,0l-6.4,0.4v1.7c0,1.8-0.1,2.7-0.2,2.7c0,0,0,0-0.1-0.1
		l-0.7-1.1c0.2-0.3,0.4-1.1,0.4-2.4V20c-2.8,0.2-4.6,0.4-5.5,0.6l-0.8-0.7l6.3-0.4v-1.7L119,18c0,0.2,0,0.4,0,0.6
		c0,0.1-0.1,0.2-0.1,0.2c0,0-0.1,0-0.1-0.1l-0.6-1c0.2-0.2,0.3-0.6,0.2-1.2l-0.1-2.2c0-0.5-0.1-1.1-0.3-1.6l0.2-0.1l0.6,1.2l2.6-0.3
		v-2c0-1.1-0.1-1.9-0.3-2.3l0.1-0.1l1,0.8c0,0,0,0.1,0,0.1c0,0,0,0.1,0,0.1c-0.2,0.4-0.3,0.9-0.3,1.6c2.2-0.2,3.5-0.4,3.9-0.6
		l0.7,0.6c0.1,0,0.1,0.1,0.1,0.1s0,0-0.1,0L122,12v1.3l2.9-0.3l0.5-0.6l0.7,0.6c0,0,0,0.1,0,0.1c0,0,0,0.1,0,0.1
		c-0.3,0.2-0.4,0.5-0.5,1l-0.3,2.5l0.5,0.5c0.1,0.1,0.1,0.1,0.1,0.1c0,0,0,0-0.1,0l-3.6,0.3v1.7c3.3-0.2,5.2-0.4,5.6-0.7L128.6,19.5
		z M125,13.6l-6.1,0.6l0,1.4c3-0.3,4.5-0.5,4.8-0.7l0.6,0.4c0,0,0.1,0.1,0.1,0.1c0,0,0,0-0.1,0.1l-5.3,0.5l0,1.4l5.8-0.5L125,13.6z"
		/>
	<path fill="#FFFFFF" d="M137.5,14.9C137.5,14.9,137.6,14.9,137.5,14.9c0.1,0.1,0,0.1,0,0.1l-3.8,0.5c0,0.8,0,1.4-0.1,1.8l1.7-0.3
		l0.3-0.5l0.7,0.6c0,0,0,0,0,0.1c0,0,0,0.1-0.1,0.1c-0.2,0.1-0.3,0.4-0.3,0.8v3.3c0,0.8,0,1.4-0.1,1.8s-0.1,0.6-0.2,0.6
		c0,0-0.1,0-0.1,0l-0.5-1.1c0.1-0.2,0.2-0.4,0.3-0.6s0.1-0.6,0.1-1.3v-3.2l-1.8,0.3c-0.2,1.4-0.5,2.5-0.8,3.4s-1,1.8-1.8,2.5
		l-0.2-0.2c0.9-1.1,1.5-2.2,1.9-3.3s0.5-3,0.5-5.7c0-2-0.2-3.4-0.5-4l0.1-0.2l1.1,0.9c0,0,0.1,0.1,0.1,0.1c0,0,0,0.1-0.1,0.1
		s-0.1,0.2-0.1,0.4c0,0.2,0,0.4,0,0.6l0,0.9c0,0.4,0,0.9,0,1.5l1.7-0.3v-2.6c0-1.1-0.1-1.9-0.3-2.4l0.1-0.1l0.9,0.8
		c0.1,0.1,0.1,0.1,0.1,0.2c0,0,0,0.1-0.1,0.1c-0.1,0.1-0.2,0.6-0.2,1.4v2.6c0.4-0.1,0.7-0.1,0.8-0.2L137.5,14.9z M145.2,22.8
		l-2.7,0.2l-1.8-3.2c-1,1.6-2.3,3-4,4l-0.1-0.2c1.6-1.1,2.9-2.5,3.9-4.3l-0.7-1.3c-0.5-0.9-0.8-1.4-1.1-1.6l0-0.2l0.9,0.2
		c0.1,0.5,0.5,1.3,1.1,2.4c0.6-1.2,1-2.5,1.2-3.8c-1.4,0.2-2.3,0.4-2.7,0.6l-0.6-0.4c-0.1,1.4-0.3,2.7-0.6,3.8
		c-0.3,1.1-0.8,2.2-1.5,3.4l-0.3-0.1c0.9-1.7,1.4-3.3,1.6-5c0.2-1.7,0.3-3.2,0.3-4.5c0-0.8-0.1-1.5-0.2-2.1l0.2-0.1l0.7,1.3
		c1-0.4,1.8-0.8,2.4-1.1c0.6-0.3,0.9-0.6,1.1-0.9l0.1-0.1l0.6,0.8c0,0,0,0.1,0,0.1c0,0-0.1,0-0.2,0.1c-0.1,0-0.3,0.1-0.5,0.1
		c-0.2,0.1-0.7,0.3-1.4,0.5l-2.2,0.9c0,1.2-0.1,2.1-0.1,2.6l3.1-0.6l0.5-0.6l0.7,0.7c0,0,0,0,0,0.1c0,0,0,0-0.1,0.1
		c-0.1,0-0.1,0.1-0.2,0.3c-0.1,0.2-0.2,0.4-0.3,0.6c-0.5,1.5-0.9,2.7-1.5,3.7c0.7,1.3,1.3,2.1,1.7,2.5c0.4,0.4,1.3,0.7,2.5,0.8V22.8
		z"/>
	<path fill="#FFFFFF" d="M152,10.4l1.2,0.9c0.1,0.1,0.1,0.1,0.1,0.1s0,0.1,0,0.1c-0.2,0.4-0.3,1.4-0.4,3c-0.1,1.6-0.3,3-0.6,4.2
		c-0.3,1.2-0.9,2.2-1.7,3c-0.8,0.8-1.9,1.5-3.4,2.2l0-0.2c1.3-0.7,2.4-1.5,3.2-2.6c0.8-1,1.4-2.3,1.6-3.9c0.2-1.6,0.3-3,0.3-4.3
		c0-1.3-0.1-2.1-0.4-2.4L152,10.4z M160.1,19c0.1,0.8,0.2,1.5,0.3,2c0.1,0.5,0.2,1,0.3,1.3s0.1,0.5,0.1,0.6c0,0,0,0.1-0.1,0.1
		s-0.3,0.1-0.8,0.1c-0.5,0.1-1.2,0.1-2,0.1s-1.5-0.1-1.9-0.2c-0.4-0.1-0.7-0.4-0.8-0.8c-0.1-0.4-0.2-0.9-0.2-1.7v-6.8
		c0-2.4-0.1-3.7-0.3-4l0.2-0.1l1.1,1.1c0,0,0,0.1,0,0.1c0,0,0,0.1,0,0.1c-0.1,0.2-0.2,0.6-0.3,1.2c0,0.5-0.1,1.3-0.1,2.3v6.1
		c0,0.6,0,1.1,0.1,1.4c0.1,0.3,0.3,0.5,0.6,0.6c0.3,0.1,0.8,0.2,1.5,0.2s1.4-0.1,2-0.2l0-3.4H160.1z"/>
	<path fill="#FFFFFF" d="M176.2,14.2c0.1,0.1,0.1,0.1,0.1,0.1s-0.1,0-0.2,0l-7.7,0.7c-2.3,0.2-3.8,0.4-4.4,0.5l-0.7-0.6l5.3-0.4
		l-0.5-1.9c-0.9,0.1-1.6,0.2-2.1,0.3l-0.7-0.5c4.5-0.3,7.3-0.6,8.5-1l0.6,0.5c0.1,0.1,0.1,0.1,0.1,0.1c0,0,0,0-0.1,0l-2.7,0.3
		l0.4,0.4c0,0,0.1,0.1,0.1,0.1c0,0,0,0.1-0.1,0.2c-0.1,0.2-0.4,0.7-0.7,1.3c1.8-0.1,3.2-0.4,4.1-0.7L176.2,14.2z M175.9,23
		c0.1,0.1,0.1,0.1,0.1,0.1c0,0-0.1,0-0.2,0c-6.5,0.4-10.2,0.6-11.1,0.8l-0.7-0.6l5.6-0.4v-1.4c-1,0.1-2,0.3-2.7,0.5l-0.7-0.6
		l3.5-0.4v-1.3l-2.4,0.2c0,0.5,0,0.7-0.1,0.7c0,0-0.1,0-0.1-0.1l-0.6-0.9c0.1-0.2,0.2-0.5,0.2-0.9l-0.1-1.4c0-0.7-0.1-1.3-0.3-1.9
		l0.2-0.1l0.5,0.9l5.9-0.6l0.4-0.5l0.5,0.5c0.1,0.1,0.1,0.1,0.1,0.1c0,0,0,0.1-0.1,0.1c-0.3,0.2-0.4,0.6-0.5,1.1l-0.2,1.8l0.4,0.4
		c0,0,0.1,0.1,0.1,0.1c0,0,0,0-0.1,0.1l-3.3,0.3v1.3c2-0.2,3-0.4,3-0.5l0.7,0.5c0.1,0,0.1,0.1,0.1,0.1c0,0,0,0-0.1,0.1l-3.6,0.3V23
		c1.5-0.1,2.7-0.2,3.4-0.3c0.7-0.1,1.2-0.2,1.5-0.3L175.9,23z M169.7,19.3v-1.2c-0.7,0.1-1.2,0.2-1.5,0.2l-0.6-0.4l2-0.2v-1.1
		l-2.5,0.3l0.2,2.7L169.7,19.3z M171.4,12.3l-2.9,0.3l0.8,1.2c-0.1,0.3-0.3,0.5-0.4,0.7l2.2-0.2C171.3,13.6,171.4,12.9,171.4,12.3z
		 M170.9,10.9c-0.1,0.3-0.1,0.5-0.2,0.7c-0.1,0.2-0.1,0.2-0.2,0.2s-0.1,0-0.1-0.1l-1.4-2l0.2-0.1L170.9,10.9z M173,16.3l-2.7,0.3
		v1.1c0.8-0.1,1.3-0.2,1.5-0.4l0.5,0.4c0,0,0.1,0.1,0.1,0.1c0,0,0,0-0.1,0.1l-2,0.3v1.2l2.5-0.3L173,16.3z"/>
	<path fill="#FFFFFF" d="M192.9,17.9l-2.6,0.5l-4.4-3.7c-2.2,2-4.4,3.6-6.6,4.6l-0.2-0.3c2.2-1.1,4.3-2.7,6.3-4.6
		c-1.3-1.1-2.1-1.7-2.5-1.7l0-0.1l1.3-0.1c0,0.2,0.5,0.7,1.6,1.6c1-1,1.7-2,2.2-2.9c-3.1,0.2-5,0.4-5.6,0.6l-0.9-0.7l6.6-0.5
		l0.5-0.7l0.8,0.8c0.1,0.1,0.1,0.1,0.1,0.1c0,0,0,0.1-0.1,0.1c-0.3,0.1-0.5,0.4-0.8,0.7c-0.7,0.9-1.5,1.9-2.5,2.8l0.9,0.8
		c0.9,0.7,1.6,1.3,2.2,1.7s1.1,0.6,1.6,0.7c0.5,0.1,1.1,0.2,1.9,0.2L192.9,17.9z M191.3,22.5c0.1,0.1,0.1,0.1,0.1,0.1
		c0,0-0.1,0-0.2,0c-6,0.1-9.5,0.4-10.4,0.6l-0.9-0.7l5.6-0.3v-2.8c-1.1,0.1-2,0.2-2.8,0.3l-0.7-0.6l3.5-0.2c0-1.6-0.1-2.7-0.3-3.2
		l0.1-0.1l1,0.9c0.1,0.1,0.1,0.1,0.1,0.2c0,0,0,0.1-0.1,0.2c-0.1,0.1-0.1,0.3-0.2,0.7s-0.1,0.9-0.1,1.3c1.1-0.1,2-0.3,2.7-0.5
		l0.6,0.6c0.1,0.1,0.1,0.1,0.1,0.1c0,0,0,0.1-0.1,0.1l-3.2,0.2v2.8c2.4-0.1,3.9-0.3,4.5-0.5L191.3,22.5z"/>
	<path fill="#FFFFFF" d="M201.4,20.5c-1.6,0.6-2.8,1.1-3.6,1.5c-0.8,0.3-1.3,0.6-1.5,0.8l-1-0.6l6-1.8L201.4,20.5z M201.1,14.1
		c0,0.1,0,0.1,0,0.1c0,0,0,0.1-0.1,0.1c-0.2,0-0.5,0.3-0.8,0.8l-2.5,3.6l3-0.5l0,0.2c-1.3,0.4-2.2,0.6-2.7,0.8
		c-0.5,0.2-0.8,0.3-1,0.4c-0.1,0.1-0.2,0.1-0.3,0.1s-0.1,0-0.1-0.1l-0.5-0.5c0.2-0.1,0.4-0.2,0.6-0.3c0.2-0.1,0.3-0.2,0.5-0.4
		s0.4-0.5,0.8-1.1c0.4-0.6,0.9-1.3,1.2-1.9c-1.1,0.2-1.8,0.4-2.1,0.5c-0.3,0.1-0.6,0.2-0.7,0.3c-0.1,0.1-0.2,0.1-0.2,0.1s0,0-0.1,0
		l-0.4-0.6c0.3-0.1,0.6-0.3,0.8-0.5c0.2-0.2,0.5-0.7,1-1.6s0.8-1.5,1-2.1s0.3-0.9,0.3-1.2c0-0.2,0-0.4,0-0.6l0.2-0.1l0.7,1.2
		c0,0,0,0.1,0,0.1c0,0,0,0.1-0.1,0.1c-0.2,0.1-0.4,0.4-0.7,0.9l-2,3.4l2.6-0.4c0.4-0.8,0.7-1.5,0.8-2l0.2-0.1L201.1,14.1z
		 M208.4,22.7c0.1,0,0.1,0.1,0.1,0.1c0,0,0,0-0.1,0c-2.7,0.1-4.6,0.2-5.7,0.2c-1.1,0.1-1.9,0.2-2.3,0.3l-0.7-0.6l3.9-0.2v-4.1
		c-0.7,0.1-1.2,0.2-1.6,0.3l-0.8-0.5c2.8-0.1,4.5-0.3,5.1-0.6l0.6,0.5c0.1,0,0.1,0.1,0.1,0.1c0,0,0,0-0.1,0l-2.7,0.2v4.1
		c2-0.1,3.2-0.3,3.5-0.5L208.4,22.7z M207.4,16.2c0,0.2,0,0.5,0,0.8c0,0.3,0,0.5-0.1,0.5c0,0-0.1,0-0.1-0.1
		c-0.4-0.4-0.9-0.9-1.5-1.4c-0.6-0.5-1.2-1-1.9-1.4c-1.2,1.3-2.5,2.2-3.9,3l-0.1-0.2c1.3-0.9,2.3-1.7,3.2-2.5
		c0.8-0.8,1.6-1.8,2.2-2.8c-2.3,0.1-3.5,0.3-3.7,0.5l-0.8-0.6l4.7-0.4l0.6-0.7l0.6,0.8c0,0,0,0.1,0,0.1c0,0,0,0.1-0.1,0.1
		s-0.2,0.1-0.3,0.3c-0.2,0.2-0.4,0.4-0.7,0.8c-0.3,0.4-0.8,0.9-1.4,1.5L207.4,16.2z"/>
	<path fill="#FFFFFF" d="M218.1,12.7C218.1,12.7,218.1,12.8,218.1,12.7c0,0.1,0,0.1,0,0.1l-3.2,0.4l-1.4,3.7l1.8-0.3
		c0-1.2-0.1-1.9-0.2-2.2l0.2-0.1l0.8,0.8c0,0,0,0.1,0,0.1c0,0,0,0.1,0,0.1c-0.1,0.3-0.2,0.7-0.2,1.2c0.5-0.1,0.8-0.2,0.9-0.4
		l0.6,0.5c0,0,0.1,0.1,0.1,0.1c0,0,0,0-0.1,0.1l-1.5,0.2V19l2.1-0.6l0.1,0.3l-2.2,0.8v2.4c0,1.2-0.1,1.9-0.2,1.9c0,0,0,0-0.1-0.1
		l-0.7-1.2c0.3-0.4,0.4-1.2,0.4-2.4v-0.4c-1.7,0.5-2.7,0.9-3.1,1.2l-0.9-0.6l4-1.1v-2l-1.4,0.2c-0.2,0-0.4,0.1-0.5,0.1
		c-0.1,0.1-0.2,0.1-0.3,0.2c-0.1,0.1-0.1,0.1-0.1,0.1c0,0-0.1,0-0.1-0.1l-0.5-0.5c0.5-0.1,1.2-1.5,1.9-4c-0.9,0.1-1.5,0.2-1.8,0.3
		l-0.8-0.5l2.7-0.3c0.2-0.6,0.3-1.1,0.4-1.5c0.1-0.4,0.1-0.6,0.1-0.9c0-0.2,0-0.5-0.1-0.9l0.3-0.1l0.9,1c0,0,0.1,0.1,0.1,0.1
		s0,0.1-0.1,0.1c-0.1,0.1-0.3,0.4-0.5,0.9l-0.5,1.3c1.3-0.2,2.1-0.3,2.4-0.5L218.1,12.7z M224.9,22.9l0,0.3l-2.6,0l-2.2-4.7
		c-0.3,1.4-0.7,2.5-1.4,3.3c-0.6,0.9-1.6,1.6-2.8,2.3l-0.1-0.2c1.5-1,2.5-2.2,3.1-3.4c0.5-1.3,0.8-2.6,0.8-3.9c0-0.4,0-0.7-0.1-0.9
		l0.2-0.1l0.9,0.8c0,0,0,0.1,0,0.1c0,0,0,0.1-0.1,0.1c-0.1,0.1-0.1,0.2-0.2,0.3s-0.1,0.4-0.2,0.8l0.9,1.9c0.6,1.3,1.2,2.1,1.7,2.5
		S224,22.8,224.9,22.9z M223.5,13.8C223.6,13.8,223.6,13.9,223.5,13.8c0.1,0.1,0,0.2,0,0.2c-0.4,0.2-0.9,1-1.7,2.5l-0.3-0.1l0.7-2
		l-3.3,0.5c-0.3,0.7-0.7,1.5-1.2,2.3l-0.2-0.1c0.6-1.3,1.1-2.6,1.4-3.7c0.3-1.1,0.5-2.1,0.5-2.8c0-0.4,0-0.7-0.1-1l0.2-0.1l1,1
		c0,0,0.1,0.1,0.1,0.1c0,0,0,0.1-0.1,0.1c-0.1,0.1-0.3,0.6-0.5,1.5c-0.3,0.9-0.5,1.6-0.8,2.3l3-0.6l0.5-0.6L223.5,13.8z"/>
	<path fill="#FFFFFF" d="M232.3,10.8C232.3,10.8,232.3,10.8,232.3,10.8c0,0.1,0,0.2,0,0.2c-0.1,0.1-0.4,0.4-0.6,0.9
		c-0.3,0.5-0.5,0.9-0.7,1.1v8.3c0,1.7-0.1,2.6-0.3,2.6c0,0-0.1,0-0.1-0.1l-0.6-1.1c0.3-0.3,0.4-0.8,0.4-1.6v-7.3
		c-0.9,1.2-1.9,2.2-3,3.2l-0.2-0.2c1.5-1.6,2.6-3,3.3-4.2c0.7-1.2,1-2.2,1-2.9l0.2-0.1L232.3,10.8z M240.7,17.5
		c0.1,0.1,0.1,0.1,0.1,0.1c0,0,0,0-0.1,0l-4,0.4v3.5c0,1.2,0,2,0,2.3s-0.1,0.4-0.1,0.4c0,0,0,0-0.1-0.1l-0.8-1.3
		c0.2-0.2,0.3-0.4,0.4-0.7c0.1-0.3,0.1-0.7,0.1-1.2v-2.9c-2,0.2-3.3,0.4-4,0.6l-0.6-0.6l4.6-0.5v-2.8c-0.8,0.1-1.4,0.2-1.9,0.4
		l-0.6-0.4c-0.4,0.9-0.8,1.7-1.2,2.3l-0.2-0.1c0.5-1.1,0.9-2.1,1.2-3.1c0.3-0.9,0.4-1.7,0.4-2.2c0-0.2,0-0.4-0.1-0.5l0.2-0.1l0.8,1
		c0,0,0,0.1,0,0.1c0,0,0,0.1,0,0.1c-0.2,0.2-0.4,0.5-0.5,0.9c-0.1,0.4-0.3,0.8-0.5,1.4l2.5-0.3v-2.8c0-0.8-0.1-1.5-0.4-2.1l0.2-0.1
		l1.1,1c0,0,0,0,0,0.1c0,0,0,0.1,0,0.1c-0.2,0.3-0.3,0.8-0.3,1.4v2.4c1.1-0.2,1.9-0.4,2.4-0.6l0.7,0.5c0,0,0.1,0.1,0.1,0.1
		c0,0,0,0-0.1,0l-3,0.4v2.8c1.9-0.2,3-0.4,3.3-0.6L240.7,17.5z"/>
</g>
<g>
	<path fill="#A4C439" d="M2,10.5c-1.1,0-2,0.9-2,2l0,8.4c0,1.1,0.9,2,2,2c1.1,0,2-0.9,2-2l0-8.4C4,11.4,3.1,10.5,2,10.5 M18.1,3
		l1.4-2.5c0.1-0.1,0-0.3-0.1-0.4C19.2,0,19.1,0,19,0.1l-1.4,2.6c-1.2-0.5-2.5-0.8-3.9-0.8c-1.4,0-2.7,0.3-3.9,0.8L8.4,0.1
		C8.3,0,8.1,0,8,0C7.9,0.1,7.8,0.3,7.9,0.4L9.3,3c-2.7,1.4-4.6,4.1-4.6,7.2l18,0C22.7,7.1,20.8,4.4,18.1,3 M9.6,6.9
		c-0.4,0-0.8-0.3-0.8-0.8c0-0.4,0.3-0.8,0.8-0.8c0.4,0,0.8,0.3,0.8,0.8C10.4,6.6,10,6.9,9.6,6.9 M17.8,6.9c-0.4,0-0.8-0.3-0.8-0.8
		c0-0.4,0.3-0.8,0.8-0.8c0.4,0,0.8,0.3,0.8,0.8C18.5,6.5,18.2,6.9,17.8,6.9 M4.8,10.8l0,13c0,1.2,1,2.1,2.1,2.1l1.5,0l0,4.4
		c0,1.1,0.9,2,2,2c1.1,0,2-0.9,2-2l0-4.4l2.7,0l0,4.4c0,1.1,0.9,2,2,2c1.1,0,2-0.9,2-2l0-4.4l1.5,0c1.2,0,2.1-1,2.1-2.1l0-13
		L4.8,10.8z M27.4,12.5c0-1.1-0.9-2-2-2c-1.1,0-2,0.9-2,2l0,8.4c0,1.1,0.9,2,2,2c1.1,0,2-0.9,2-2L27.4,12.5z"/>
</g>
</svg>
