<?xml version="1.0" encoding="utf-8"?>
<!-- Generator: Adobe Illustrator 18.1.1, SVG Export Plug-In . SVG Version: 6.00 Build 0)  -->
<!DOCTYPE svg PUBLIC "-//W3C//DTD SVG 1.1//EN" "http://www.w3.org/Graphics/SVG/1.1/DTD/svg11.dtd">
<svg version="1.1" id="Layer_1" xmlns="http://www.w3.org/2000/svg" xmlns:xlink="http://www.w3.org/1999/xlink" x="0px" y="0px"
	 viewBox="0 0 612 792" enable-background="new 0 0 612 792" xml:space="preserve">
<path fill="#888888" d="M57.6,90C25.6,90,0,115.6,0,147.6v497.3c0,31.4,25.6,57.6,57.6,57.6h267.9V453.4h-57.6v-76.3h57.6v-87.9
	c0-12.2-2.3-103.6,104.8-103.6h67.5v76.3h-54.2c-11.1,0-22.1,11.6-22.1,19.8v94.9H499c-2.9,43.7-14.6,76.3-14.6,76.3H421v248.6
	h133.9c31.4,0,57.6-25.6,57.6-57.6V147.6c0-31.4-25.6-57.6-57.6-57.6H57.6z"/>
</svg>
