<?xml version="1.0" encoding="utf-8"?>
<!-- Generator: Adobe Illustrator 18.1.0, SVG Export Plug-In . SVG Version: 6.00 Build 0)  -->
<!DOCTYPE svg PUBLIC "-//W3C//DTD SVG 1.1//EN" "http://www.w3.org/Graphics/SVG/1.1/DTD/svg11.dtd">
<svg version="1.1" id="Layer_1" xmlns="http://www.w3.org/2000/svg" xmlns:xlink="http://www.w3.org/1999/xlink" x="0px" y="0px"
	 viewBox="0 0 1531.7 796" enable-background="new 0 0 1531.7 796" xml:space="preserve">
<linearGradient id="SVGID_1_" gradientUnits="userSpaceOnUse" x1="765.8553" y1="796" x2="765.8553" y2="-3.438345e-08">
	<stop  offset="0" style="stop-color:#134A89"/>
	<stop  offset="1" style="stop-color:#090A12"/>
</linearGradient>
<rect x="0" fill="url(#SVGID_1_)" width="1531.7" height="796"/>
<path fill="#305126" d="M0,796h594.6l14-47.5l-65-31.5l-145.5-32.5l-63.5-16l-26-5l-43,8l-43-5c0,0-124.4,3.9-161.9,29.1
	S0,796,0,796z"/>
<path fill="#57833B" d="M0,679.1c0,0,127,41.8,139.6,116.9H0V679.1z"/>
<path fill="#57833B" d="M1531.7,714.3c-60.8-35.4-152.7-68.8-282.6-68.8c-275.5,0-104.1,0-328.5,0S543.6,796,543.6,796h988.1V714.3z
	"/>
</svg>
