<?xml version="1.0" encoding="utf-8"?>
<!-- Generator: Adobe Illustrator 18.1.0, SVG Export Plug-In . SVG Version: 6.00 Build 0)  -->
<!DOCTYPE svg PUBLIC "-//W3C//DTD SVG 1.1//EN" "http://www.w3.org/Graphics/SVG/1.1/DTD/svg11.dtd">
<svg version="1.1" id="Layer_1" xmlns="http://www.w3.org/2000/svg" xmlns:xlink="http://www.w3.org/1999/xlink" x="0px" y="0px"
	 viewBox="0 0 217.2 52.7" enable-background="new 0 0 217.2 52.7" xml:space="preserve">
<path fill="#FFFFFF" d="M12.8,18.2L0,0h7.5l8.4,13.1L24.3,0h7.5L19,18.2v11.2h-6.2V18.2z"/>
<path fill="#FFFFFF" d="M39.2,6.7c9.7,0,13.5,5.7,13.5,11.7c0,6-3.7,11.7-13.5,11.7s-13.5-5.7-13.5-11.7
	C25.7,12.5,29.5,6.7,39.2,6.7z M39.2,25.8c5.5,0,7.6-3.6,7.6-7.4c0-3.8-2.1-7.4-7.6-7.4c-5.5,0-7.6,3.6-7.6,7.4
	C31.7,22.2,33.7,25.8,39.2,25.8z"/>
<path fill="#FFFFFF" d="M55.2,7.6h5.7V20c0,3.3,0.8,5.8,5.6,5.8c2.5,0,6.6-1.6,6.6-6.3v-12h5.7v21.8h-5.7v-3H73
	c-1.9,2.3-4.7,3.9-8.6,3.9c-4.7,0-9.3-1.7-9.3-8.1V7.6z"/>
<path fill="#FFFFFF" d="M80.4,0h1.1L94,28.3L106.6,0h1.1L94.5,29.4h-1.1L80.4,0z"/>
<path fill="#FFFFFF" d="M107.3,18.8c0,5.6,3.7,10.4,10.8,10.4c7.3,0,9.3-4.5,10.1-7.2h0.8c-0.7,3-3,8-10.9,8
	c-7.2,0-11.6-4.8-11.6-11.2c0-6.4,4.4-11.2,11.6-11.2c6.1,0,11.2,4.1,11.2,11.2H107.3z M128.4,18c-0.3-5-3.9-9.5-10.4-9.5
	c-6.8,0-10.4,4.4-10.8,9.5H128.4z"/>
<path fill="#FFFFFF" d="M132.1,8.3h0.8V14h0.1c1.2-4.2,4.9-6.3,8.7-6.3c0.7,0,1.4,0.1,1.8,0.1v0.8c-0.6-0.1-1.3-0.1-1.8-0.1
	c-4.8,0-8.7,3.6-8.7,10.5v10.4h-0.8V8.3z"/>
<path fill="#FFFFFF" d="M144.1,22.8c0.4,4,1.9,6.4,9.4,6.4c5.5,0,8.6-1.6,8.6-5.2c0-3.2-1.7-4.2-6.1-4.7l-6.4-0.8
	c-3.5-0.4-5.6-1.9-5.6-5.2c0-3.5,2.5-5.6,9.2-5.6c5.6,0,8.6,1.5,8.8,6.8h-0.8c-0.2-4.8-2.9-6-8.3-6c-6.1,0-8.1,2-8.1,4.8
	c0,2.6,1.5,3.9,5,4.4l6.4,0.8c5.1,0.6,6.7,2.1,6.7,5.6c0,2.6-1.3,6-9.5,6c-8.7,0-9.8-3.4-10.2-7.2H144.1z"/>
<path fill="#FFFFFF" d="M165.6,7.9h0.8v21.5h-0.8V7.9z"/>
<path fill="#FFFFFF" d="M196.1,8.3h0.8V13h0.1c1.6-3.7,4.9-5.4,9.5-5.4c8.1,0,9.5,4.4,9.5,8.5v13.2h-0.8V16.1c0-3.5-1.1-7.6-8.6-7.6
	c-8.8,0-9.6,6.4-9.6,9.1v11.8h-0.8V8.3z"/>
<path fill="#FFFFFF" d="M189.1,23.7c-0.8,1.3-1.9,2.5-3.3,3.3c0,0.2,0.1,0.4,0.1,0.6c0,0.6-0.1,1.2-0.3,1.7c2.6-1.1,4.7-3.2,5.9-5.9
	c-0.5,0.2-1.1,0.3-1.7,0.3C189.5,23.8,189.3,23.8,189.1,23.7z"/>
<path fill="#FFFFFF" d="M176.3,27c-1.3-0.8-2.5-1.9-3.3-3.3c-0.2,0-0.4,0.1-0.6,0.1c-0.6,0-1.2-0.1-1.7-0.3c1.1,2.6,3.2,4.7,5.9,5.9
	c-0.2-0.5-0.3-1.1-0.3-1.7C176.3,27.4,176.3,27.2,176.3,27z"/>
<path fill="#FFFFFF" d="M185.8,11c1.3,0.8,2.5,1.9,3.3,3.3c0.2,0,0.4-0.1,0.6-0.1c0.6,0,1.2,0.1,1.7,0.3c-1.1-2.6-3.2-4.7-5.9-5.9
	c0.2,0.5,0.3,1.1,0.3,1.7C185.8,10.6,185.8,10.8,185.8,11z"/>
<path fill="#FFFFFF" d="M173,14.3c0.8-1.3,1.9-2.5,3.3-3.3c0-0.2-0.1-0.4-0.1-0.6c0-0.6,0.1-1.2,0.3-1.7c-2.6,1.1-4.7,3.2-5.9,5.9
	c0.5-0.2,1.1-0.3,1.7-0.3C172.6,14.2,172.8,14.2,173,14.3z"/>
<path fill="#FFFFFF" d="M181,7.7c-2.7,0-3.2,1.4-3.2,2.6c0,1.2,0.6,2.6,3.2,2.6c2.7,0,3.2-1.4,3.2-2.6C184.3,9.2,183.7,7.7,181,7.7z
	"/>
<path fill="#FFFFFF" d="M181,30.2c2.7,0,3.2-1.4,3.2-2.6c0-1.2-0.6-2.6-3.2-2.6c-2.7,0-3.2,1.4-3.2,2.6
	C177.8,28.8,178.4,30.2,181,30.2z"/>
<path fill="#FFFFFF" d="M169.8,19c0,2.1,0.9,3.2,2.6,3.2c1.2,0,2.6-0.6,2.6-3.2c0-2.1-0.9-3.2-2.6-3.2
	C170.7,15.8,169.8,16.9,169.8,19z"/>
<path fill="#FFFFFF" d="M192.3,19c0-2.1-0.9-3.2-2.6-3.2c-1.7,0-2.6,1.1-2.6,3.2s0.9,3.2,2.6,3.2C191.4,22.2,192.3,21.1,192.3,19z"
	/>
<g>
	<path fill="#FFFFFF" d="M124.4,41.3H121v-0.7h7.5v0.7h-3.4v9.1h-0.7V41.3z"/>
	<path fill="#FFFFFF" d="M130.3,40.3h0.7v4.4c0.2-0.4,0.6-0.8,1-1.1c0.4-0.3,0.9-0.4,1.6-0.4c0.4,0,0.8,0.1,1.2,0.2
		c0.4,0.1,0.7,0.3,0.9,0.6c0.2,0.3,0.4,0.6,0.6,0.9c0.1,0.4,0.2,0.8,0.2,1.2v4.4h-0.7v-4.2c0-0.7-0.2-1.3-0.6-1.8
		c-0.4-0.4-1-0.7-1.7-0.7c-0.3,0-0.7,0.1-1,0.2c-0.3,0.1-0.6,0.3-0.8,0.5c-0.2,0.2-0.4,0.5-0.5,0.8c-0.1,0.3-0.2,0.7-0.2,1v4.1h-0.7
		V40.3z"/>
	<path fill="#FFFFFF" d="M141.9,50.6c-0.5,0-0.9-0.1-1.3-0.3c-0.4-0.2-0.8-0.4-1.1-0.8c-0.3-0.3-0.6-0.7-0.8-1.2
		c-0.2-0.5-0.3-1-0.3-1.5v0c0-0.5,0.1-1,0.3-1.5c0.2-0.5,0.4-0.8,0.7-1.2c0.3-0.3,0.7-0.6,1.1-0.8c0.4-0.2,0.9-0.3,1.3-0.3
		c0.5,0,1,0.1,1.4,0.3c0.4,0.2,0.7,0.5,1,0.8c0.3,0.3,0.5,0.7,0.7,1.2c0.2,0.5,0.2,0.9,0.2,1.5c0,0.1,0,0.1,0,0.2c0,0,0,0.1,0,0.1
		h-5.9c0,0.4,0.1,0.8,0.3,1.2c0.2,0.3,0.4,0.6,0.6,0.9c0.3,0.2,0.5,0.4,0.9,0.5c0.3,0.1,0.7,0.2,1,0.2c0.6,0,1-0.1,1.4-0.3
		c0.4-0.2,0.7-0.5,1-0.8l0.5,0.4c-0.2,0.2-0.4,0.4-0.6,0.5c-0.2,0.2-0.4,0.3-0.7,0.4c-0.2,0.1-0.5,0.2-0.8,0.3
		C142.6,50.6,142.3,50.6,141.9,50.6z M144.3,46.6c0-0.4-0.1-0.7-0.2-1c-0.1-0.3-0.3-0.6-0.5-0.9c-0.2-0.3-0.5-0.5-0.8-0.6
		c-0.3-0.2-0.7-0.2-1.1-0.2c-0.4,0-0.7,0.1-1,0.2c-0.3,0.1-0.6,0.3-0.8,0.6c-0.2,0.2-0.4,0.5-0.6,0.9c-0.1,0.3-0.2,0.7-0.3,1.1
		H144.3z"/>
	<path fill="#FFFFFF" d="M151.4,40.7h4c0.6,0,1.1,0.1,1.5,0.2c0.4,0.2,0.8,0.4,1.1,0.6c0.4,0.4,0.6,0.9,0.6,1.5v0
		c0,0.3,0,0.6-0.1,0.9c-0.1,0.3-0.2,0.5-0.4,0.7c-0.2,0.2-0.3,0.3-0.5,0.5s-0.4,0.2-0.6,0.3c0.3,0.1,0.6,0.2,0.8,0.3
		c0.3,0.1,0.5,0.3,0.7,0.5c0.2,0.2,0.4,0.4,0.5,0.7c0.1,0.3,0.2,0.6,0.2,0.9v0c0,0.4-0.1,0.8-0.2,1.1c-0.2,0.3-0.4,0.6-0.7,0.8
		c-0.3,0.2-0.7,0.4-1.1,0.5c-0.4,0.1-0.9,0.2-1.4,0.2h-4.2V40.7z M155.4,45.2c0.4,0,0.7,0,1-0.1c0.3-0.1,0.6-0.2,0.8-0.4
		c0.2-0.2,0.4-0.4,0.5-0.6c0.1-0.3,0.2-0.5,0.2-0.9v0c0-0.5-0.2-1-0.6-1.3c-0.4-0.3-1-0.5-1.8-0.5h-3.3v3.9H155.4z M155.7,49.8
		c0.8,0,1.5-0.2,2-0.5c0.5-0.4,0.7-0.8,0.7-1.5v0c0-0.6-0.3-1.1-0.8-1.4c-0.5-0.3-1.2-0.5-2.2-0.5h-3.3v3.9H155.7z"/>
	<path fill="#FFFFFF" d="M161.4,40.5h0.9v0.9h-0.9V40.5z M161.4,43.3h0.7v7.1h-0.7V43.3z"/>
	<path fill="#FFFFFF" d="M168.4,50.6c-0.4,0-0.7,0-1-0.1c-0.3-0.1-0.6-0.2-0.8-0.4c-0.2-0.2-0.5-0.3-0.6-0.5
		c-0.2-0.2-0.4-0.4-0.5-0.6v1.5h-0.7V40.3h0.7v4.7c0.2-0.2,0.3-0.5,0.5-0.7c0.2-0.2,0.4-0.4,0.6-0.6c0.2-0.2,0.5-0.3,0.8-0.4
		c0.3-0.1,0.6-0.1,1-0.1c0.4,0,0.9,0.1,1.3,0.3c0.4,0.2,0.8,0.4,1.1,0.7c0.3,0.3,0.6,0.7,0.8,1.2c0.2,0.5,0.3,1,0.3,1.6v0
		c0,0.6-0.1,1.1-0.3,1.6c-0.2,0.5-0.5,0.9-0.8,1.2c-0.3,0.3-0.7,0.6-1.1,0.7C169.3,50.5,168.9,50.6,168.4,50.6z M168.4,50
		c0.4,0,0.8-0.1,1.1-0.2c0.3-0.1,0.6-0.3,0.9-0.6c0.3-0.3,0.5-0.6,0.6-1c0.1-0.4,0.2-0.8,0.2-1.3v0c0-0.5-0.1-0.9-0.2-1.3
		c-0.1-0.4-0.4-0.7-0.6-1c-0.3-0.3-0.6-0.5-0.9-0.6c-0.3-0.1-0.7-0.2-1.1-0.2c-0.4,0-0.7,0.1-1.1,0.2c-0.4,0.1-0.7,0.4-0.9,0.6
		c-0.3,0.3-0.5,0.6-0.7,1c-0.2,0.4-0.2,0.8-0.2,1.2v0c0,0.5,0.1,0.9,0.2,1.3c0.2,0.4,0.4,0.7,0.7,1c0.3,0.3,0.6,0.5,0.9,0.6
		C167.6,49.9,168,50,168.4,50z"/>
	<path fill="#FFFFFF" d="M174.2,40.3h0.7v10.2h-0.7V40.3z"/>
	<path fill="#FFFFFF" d="M180.5,50.6c-0.5,0-0.9-0.1-1.3-0.3c-0.4-0.2-0.8-0.4-1.1-0.8c-0.3-0.3-0.6-0.7-0.8-1.2
		c-0.2-0.5-0.3-1-0.3-1.5v0c0-0.5,0.1-1,0.3-1.5c0.2-0.5,0.4-0.8,0.7-1.2c0.3-0.3,0.7-0.6,1.1-0.8c0.4-0.2,0.9-0.3,1.3-0.3
		c0.5,0,1,0.1,1.4,0.3c0.4,0.2,0.7,0.5,1,0.8c0.3,0.3,0.5,0.7,0.7,1.2c0.2,0.5,0.2,0.9,0.2,1.5c0,0.1,0,0.1,0,0.2c0,0,0,0.1,0,0.1
		h-5.9c0,0.4,0.1,0.8,0.3,1.2c0.2,0.3,0.4,0.6,0.6,0.9c0.3,0.2,0.5,0.4,0.9,0.5c0.3,0.1,0.7,0.2,1,0.2c0.6,0,1-0.1,1.4-0.3
		c0.4-0.2,0.7-0.5,1-0.8l0.5,0.4c-0.2,0.2-0.4,0.4-0.6,0.5c-0.2,0.2-0.4,0.3-0.7,0.4c-0.2,0.1-0.5,0.2-0.8,0.3
		C181.2,50.6,180.9,50.6,180.5,50.6z M183,46.6c0-0.4-0.1-0.7-0.2-1c-0.1-0.3-0.3-0.6-0.5-0.9c-0.2-0.3-0.5-0.5-0.8-0.6
		c-0.3-0.2-0.7-0.2-1.1-0.2c-0.4,0-0.7,0.1-1,0.2c-0.3,0.1-0.6,0.3-0.8,0.6c-0.2,0.2-0.4,0.5-0.6,0.9c-0.1,0.3-0.2,0.7-0.3,1.1H183z
		"/>
	<path fill="#FFFFFF" d="M193.8,40.6h0.7l4.6,9.9h-0.8l-1.2-2.7h-5.8l-1.2,2.7h-0.8L193.8,40.6z M196.7,47.1l-2.6-5.7l-2.6,5.7
		H196.7z"/>
	<path fill="#FFFFFF" d="M200.9,43.3h0.7v1.6c0.2-0.2,0.3-0.5,0.5-0.7c0.2-0.2,0.4-0.4,0.6-0.6c0.2-0.2,0.5-0.3,0.8-0.4
		c0.3-0.1,0.6-0.1,1-0.1c0.4,0,0.9,0.1,1.3,0.3c0.4,0.2,0.8,0.4,1.1,0.7c0.3,0.3,0.6,0.7,0.8,1.2c0.2,0.5,0.3,1,0.3,1.6v0
		c0,0.6-0.1,1.1-0.3,1.6c-0.2,0.5-0.5,0.9-0.8,1.2c-0.3,0.3-0.7,0.6-1.1,0.7c-0.4,0.2-0.8,0.3-1.3,0.3c-0.4,0-0.7,0-1-0.1
		c-0.3-0.1-0.6-0.2-0.8-0.4c-0.2-0.2-0.5-0.3-0.6-0.5c-0.2-0.2-0.4-0.4-0.5-0.6v3.8h-0.7V43.3z M204.5,50c0.4,0,0.8-0.1,1.1-0.2
		c0.3-0.1,0.6-0.3,0.9-0.6c0.3-0.3,0.5-0.6,0.6-1c0.1-0.4,0.2-0.8,0.2-1.3v0c0-0.5-0.1-0.9-0.2-1.3c-0.1-0.4-0.4-0.7-0.6-1
		c-0.3-0.3-0.6-0.5-0.9-0.6c-0.3-0.1-0.7-0.2-1.1-0.2c-0.4,0-0.7,0.1-1.1,0.2c-0.4,0.1-0.7,0.4-0.9,0.6c-0.3,0.3-0.5,0.6-0.7,1
		c-0.2,0.4-0.2,0.8-0.2,1.2v0c0,0.5,0.1,0.9,0.2,1.3c0.2,0.4,0.4,0.7,0.7,1c0.3,0.3,0.6,0.5,0.9,0.6C203.8,49.9,204.1,50,204.5,50z"
		/>
	<path fill="#FFFFFF" d="M210.2,43.3h0.7v1.6c0.2-0.2,0.3-0.5,0.5-0.7c0.2-0.2,0.4-0.4,0.6-0.6c0.2-0.2,0.5-0.3,0.8-0.4
		c0.3-0.1,0.6-0.1,1-0.1c0.4,0,0.9,0.1,1.3,0.3c0.4,0.2,0.8,0.4,1.1,0.7c0.3,0.3,0.6,0.7,0.8,1.2c0.2,0.5,0.3,1,0.3,1.6v0
		c0,0.6-0.1,1.1-0.3,1.6c-0.2,0.5-0.5,0.9-0.8,1.2c-0.3,0.3-0.7,0.6-1.1,0.7c-0.4,0.2-0.8,0.3-1.3,0.3c-0.4,0-0.7,0-1-0.1
		c-0.3-0.1-0.6-0.2-0.8-0.4c-0.2-0.2-0.5-0.3-0.6-0.5c-0.2-0.2-0.4-0.4-0.5-0.6v3.8h-0.7V43.3z M213.7,50c0.4,0,0.8-0.1,1.1-0.2
		c0.3-0.1,0.6-0.3,0.9-0.6c0.3-0.3,0.5-0.6,0.6-1c0.1-0.4,0.2-0.8,0.2-1.3v0c0-0.5-0.1-0.9-0.2-1.3c-0.1-0.4-0.4-0.7-0.6-1
		c-0.3-0.3-0.6-0.5-0.9-0.6c-0.3-0.1-0.7-0.2-1.1-0.2c-0.4,0-0.7,0.1-1.1,0.2c-0.4,0.1-0.7,0.4-0.9,0.6c-0.3,0.3-0.5,0.6-0.7,1
		c-0.2,0.4-0.2,0.8-0.2,1.2v0c0,0.5,0.1,0.9,0.2,1.3c0.2,0.4,0.4,0.7,0.7,1c0.3,0.3,0.6,0.5,0.9,0.6C213,49.9,213.3,50,213.7,50z"/>
</g>
</svg>
