<svg xmlns="http://www.w3.org/2000/svg" xmlns:xlink="http://www.w3.org/1999/xlink" version="1.1" id="Layer_1" x="0px" y="0px" viewBox="0 0 218.3 80.1" enable-background="new 0 0 218.3 80.1" xml:space="preserve">
  <g>
    <polygon fill="#010101" points="193.1 29.4 192.6 33.9 193.1 33.9 194.2 29.4 "/>
    <polygon fill="#010101" points="195 29.4 195.6 33.1 196.2 33.1 196 29.5 "/>
    <polygon fill="#010101" points="203.6 29.9 204.3 33.9 204.8 33.9 204.6 29.6 "/>
    <polygon fill="#010101" points="205.6 29.4 206.3 32.3 206.7 32.3 206.2 28.9 "/>
    <ellipse fill="#EFF3E7" cx="199.7" cy="22.1" rx="11.6" ry="9.1"/>
    <path fill="#CFB2B4" d="M205.5 17.1c0 0-5.2-2-7.4 3 -2.1 5 7.4-2.1 7.4-2.1s-2.1 12 6.4 10.2c8.5-1.7-0.9-11.6-0.9-11.6s5 2.2 6.8 1.7c1.7-0.4-1.1-5-6.9-2.5S205.5 17.1 205.5 17.1z"/>
    <ellipse fill="#EFF3E7" cx="208" cy="15.7" rx="3.7" ry="2.3"/>
    <ellipse transform="matrix(-0.405 0.9143 -0.9143 -0.405 281.9828 -144.1322)" fill="#EFF3E7" cx="187.9" cy="19.7" rx="3.3" ry="3.1"/>
    <circle fill="#010101" cx="208.1" cy="20.2" r="0.6"/>
    <circle fill="#010101" cx="211" cy="19.7" r="0.6"/>
    <polygon fill="#A17A7A" points="210 26.6 211.9 28.1 213.1 26.1 211.8 27.2 "/>
  </g>
  <g>
    <polygon fill="#010101" points="69.6 75.7 69.1 80.1 69.6 80.1 70.6 75.7 "/>
    <polygon fill="#010101" points="71.5 75.7 72.1 79.4 72.6 79.4 72.5 75.8 "/>
    <polygon fill="#010101" points="80.1 76.1 80.8 80.1 81.2 80.1 81 75.9 "/>
    <polygon fill="#010101" points="82.1 75.7 82.8 78.6 83.2 78.6 82.7 75.2 "/>
    <ellipse fill="#EFF3E7" cx="76.2" cy="68.3" rx="11.6" ry="9.1"/>
    <path fill="#CFB2B4" d="M82 63.4c0 0-5.2-2-7.4 3 -2.1 5 7.4-2.1 7.4-2.1s-2.1 12 6.4 10.2c8.5-1.7-0.9-11.6-0.9-11.6s5 2.2 6.8 1.7c1.7-0.4-1.1-5-6.9-2.5C81.6 64.6 82 63.4 82 63.4z"/>
    <ellipse fill="#EFF3E7" cx="84.4" cy="61.9" rx="3.7" ry="2.3"/>
    <ellipse transform="matrix(-0.405 0.9143 -0.9143 -0.405 150.7223 33.8226)" fill="#EFF3E7" cx="64.4" cy="66" rx="3.3" ry="3.1"/>
    <circle fill="#010101" cx="84.5" cy="66.5" r="0.6"/>
    <circle fill="#010101" cx="87.5" cy="66" r="0.6"/>
    <polygon fill="#A17A7A" points="86.5 72.9 88.3 74.3 89.6 72.3 88.3 73.4 "/>
  </g>
  <g>
    <polygon fill="#010101" points="12.1 47.2 11.6 51.6 12.1 51.6 13.1 47.2 "/>
    <polygon fill="#010101" points="14 47.2 14.6 50.9 15.1 50.9 15 47.3 "/>
    <polygon fill="#010101" points="22.6 47.6 23.3 51.6 23.7 51.6 23.6 47.4 "/>
    <polygon fill="#010101" points="24.6 47.2 25.3 50.1 25.7 50.1 25.2 46.7 "/>
    <ellipse fill="#EFF3E7" cx="18.7" cy="39.8" rx="11.6" ry="9.1"/>
    <path fill="#CFB2B4" d="M24.5 34.9c0 0-5.2-2-7.4 3s7.4-2.1 7.4-2.1 -2.1 12 6.4 10.2c8.5-1.7-0.9-11.6-0.9-11.6s5 2.2 6.8 1.7c1.7-0.4-1.1-5-6.9-2.5S24.5 34.9 24.5 34.9z"/>
    <ellipse fill="#EFF3E7" cx="26.9" cy="33.4" rx="3.7" ry="2.3"/>
    <ellipse transform="matrix(-0.405 0.9143 -0.9143 -0.405 43.8947 46.3419)" fill="#EFF3E7" cx="6.9" cy="37.5" rx="3.3" ry="3.1"/>
    <circle fill="#010101" cx="27.1" cy="38" r="0.6"/>
    <circle fill="#010101" cx="30" cy="37.5" r="0.6"/>
    <polygon fill="#A17A7A" points="29 44.4 30.8 45.8 32.1 43.8 30.8 44.9 "/>
  </g>
  <g>
    <polygon fill="#010101" points="25.2 16.4 25.7 20.9 25.2 20.9 24.2 16.4 "/>
    <polygon fill="#010101" points="23.3 16.4 22.7 20.1 22.2 20.1 22.3 16.6 "/>
    <polygon fill="#010101" points="14.8 16.9 14 20.9 13.6 20.9 13.8 16.6 "/>
    <polygon fill="#010101" points="12.8 16.4 12 19.4 11.6 19.4 12.2 16 "/>
    <ellipse fill="#EFF3E7" cx="18.7" cy="9.1" rx="11.6" ry="9.1"/>
    <path fill="#CFB2B4" d="M12.8 4.2c0 0 5.2-2 7.4 3S12.8 5 12.8 5s2.1 12-6.4 10.2S7.3 3.6 7.3 3.6s-5 2.2-6.8 1.7c-1.7-0.4 1.1-5 6.9-2.5S12.8 4.2 12.8 4.2z"/>
    <ellipse fill="#EFF3E7" cx="10.4" cy="2.7" rx="3.7" ry="2.3"/>
    <ellipse transform="matrix(0.405 0.9143 -0.9143 0.405 24.25 -23.8609)" fill="#EFF3E7" cx="30.5" cy="6.7" rx="3.3" ry="3.1"/>
    <circle fill="#010101" cx="10.3" cy="7.2" r="0.6"/>
    <circle fill="#010101" cx="7.3" cy="6.7" r="0.6"/>
    <polygon fill="#A17A7A" points="8.3 13.6 6.5 15.1 5.2 13.1 6.6 14.2 "/>
  </g>
  <g>
    <polygon fill="#010101" points="110.7 22.4 111.3 26.9 110.7 26.9 109.7 22.4 "/>
    <polygon fill="#010101" points="108.9 22.4 108.2 26.1 107.7 26.1 107.8 22.6 "/>
    <polygon fill="#010101" points="100.3 22.9 99.6 26.9 99.1 26.9 99.3 22.6 "/>
    <polygon fill="#010101" points="98.3 22.4 97.6 25.4 97.2 25.4 97.7 22 "/>
    <ellipse fill="#EFF3E7" cx="104.2" cy="15.1" rx="11.6" ry="9.1"/>
    <path fill="#CFB2B4" d="M98.4 10.2c0 0 5.2-2 7.4 3 2.1 5-7.4-2.1-7.4-2.1s2.1 12-6.4 10.2 0.9-11.6 0.9-11.6 -5 2.2-6.8 1.7c-1.7-0.4 1.1-5 6.9-2.5S98.4 10.2 98.4 10.2z"/>
    <ellipse fill="#EFF3E7" cx="95.9" cy="8.7" rx="3.7" ry="2.3"/>
    <ellipse transform="matrix(0.405 0.9143 -0.9143 0.405 80.6259 -98.4952)" fill="#EFF3E7" cx="116" cy="12.7" rx="3.3" ry="3.1"/>
    <circle fill="#010101" cx="95.8" cy="13.2" r="0.6"/>
    <circle fill="#010101" cx="92.8" cy="12.7" r="0.6"/>
    <polygon fill="#A17A7A" points="93.8 19.6 92 21.1 90.8 19.1 92.1 20.2 "/>
  </g>
  <g>
    <polygon fill="#010101" points="62.5 29.6 63.1 34.1 62.5 34.1 61.5 29.6 "/>
    <polygon fill="#010101" points="60.7 29.6 60 33.3 59.5 33.3 59.6 29.8 "/>
    <polygon fill="#010101" points="52.1 30.1 51.4 34.1 50.9 34.1 51.1 29.8 "/>
    <polygon fill="#010101" points="50.1 29.6 49.4 32.6 48.9 32.6 49.5 29.2 "/>
    <ellipse fill="#EFF3E7" cx="56" cy="22.3" rx="11.6" ry="9.1"/>
    <path fill="#CFB2B4" d="M50.2 17.4c0 0 5.2-2 7.4 3 2.1 5-7.4-2.1-7.4-2.1s2.1 12-6.4 10.2 0.9-11.6 0.9-11.6 -5 2.2-6.8 1.7 1.1-5 6.9-2.5S50.2 17.4 50.2 17.4z"/>
    <ellipse fill="#EFF3E7" cx="47.7" cy="15.9" rx="3.7" ry="2.3"/>
    <ellipse transform="matrix(0.405 0.9143 -0.9143 0.405 58.5441 -50.126)" fill="#EFF3E7" cx="67.8" cy="19.9" rx="3.3" ry="3.1"/>
    <circle fill="#010101" cx="47.6" cy="20.5" r="0.6"/>
    <circle fill="#010101" cx="44.6" cy="19.9" r="0.6"/>
    <polygon fill="#A17A7A" points="45.6 26.8 43.8 28.3 42.5 26.3 43.9 27.4 "/>
  </g>
</svg>
