<svg xmlns="http://www.w3.org/2000/svg" xmlns:xlink="http://www.w3.org/1999/xlink" version="1.1" id="Layer_1" x="0px" y="0px" viewBox="0 0 305.1 251.4" enable-background="new 0 0 305.1 251.4" xml:space="preserve">
  <path fill="#CCB08D" d="M185.8 77.2c0 0-5.7 0.1-6.7-2.4S178 59 178 59l-8.3 9.1c0.2 2.2 0.2 4.7-0.5 6.3 -0.9 2.1-2.3 2.8-2.3 2.8l-2.6 13.6 8.7 3.1 11.5-9.4L185.8 77.2z"/>
  <path fill="#996828" d="M66.8 65.4l4.3-4.7c0 0-8-13.3 0-19s15 11.8 15 11.8l77 164.5 3.7-3.3 -45.1-99.3 -10.3-21.4L102 74.5 91.8 49.7c0 0-10.3-21.7-23.7-12.7S66.8 65.4 66.8 65.4z"/>
  <g>
    <polygon fill="#010101" points="23.4 204.8 21.9 217.3 23.4 217.3 26.2 204.8 "/>
    <polygon fill="#010101" points="28.7 204.8 30.4 215.1 31.8 215.1 31.5 205.2 "/>
    <polygon fill="#010101" points="52.6 206.1 54.6 217.3 55.8 217.3 55.3 205.4 "/>
    <polygon fill="#010101" points="58.2 204.8 60.2 213 61.3 213 59.8 203.5 "/>
    <ellipse fill="#EFF3E7" cx="41.7" cy="184.4" rx="32.5" ry="25.4"/>
    <path fill="#CFB2B4" d="M57.9 170.6c0 0-14.6-5.6-20.6 8.4s20.6-6 20.6-6 -5.8 33.4 18 28.5S73.4 169 73.4 169s14 6.1 18.9 4.9 -3-14-19.2-7C56.8 173.9 57.9 170.6 57.9 170.6z"/>
    <ellipse fill="#EFF3E7" cx="64.8" cy="166.5" rx="10.2" ry="6.4"/>
    <ellipse transform="matrix(-0.405 0.9143 -0.9143 -0.405 174.7525 241.7006)" fill="#EFF3E7" cx="8.7" cy="177.7" rx="9.1" ry="8.7"/>
    <circle fill="#010101" cx="65.1" cy="179.2" r="1.6"/>
    <circle fill="#010101" cx="73.4" cy="177.7" r="1.6"/>
    <polygon fill="#A17A7A" points="70.6 197 75.6 201.1 79.2 195.6 75.4 198.6 "/>
  </g>
  <g>
    <path fill="#CCB08D" d="M171.8 197.9v49.5c0 0-19.8 7-24.2 2.5s12.1-7.8 12.1-7.8v-49.5L171.8 197.9z"/>
    <path fill="none" stroke="#957A5B" stroke-linecap="round" stroke-linejoin="round" stroke-miterlimit="10" d="M148.1 249.8c0 0-0.7-2.1 2.2-2.4"/>
    <path fill="none" stroke="#957A5B" stroke-linecap="round" stroke-linejoin="round" stroke-miterlimit="10" d="M150.4 250.6c0 0-0.7-2.1 2.2-2.4"/>
  </g>
  <polygon fill="#CCB08D" points="213.9 12.8 201 0 201 1.8 206.3 9.2 206.3 12.8 201.3 13.1 201.9 15.1 206.9 15.6 213.9 18.1 "/>
  <g>
    <path fill="#CCB08D" d="M270.7 170.1v49.5c0 0-19.8 7-24.2 2.5s12.1-7.8 12.1-7.8v-49.5L270.7 170.1z"/>
    <path fill="none" stroke="#957A5B" stroke-linecap="round" stroke-linejoin="round" stroke-miterlimit="10" d="M247 222c0 0-0.7-2.1 2.2-2.4"/>
    <path fill="none" stroke="#957A5B" stroke-linecap="round" stroke-linejoin="round" stroke-miterlimit="10" d="M249.2 222.8c0 0-0.7-2.1 2.2-2.4"/>
  </g>
  <g>
    <path fill="#CCB08D" d="M295.5 180v49.5c0 0-19.8 7-24.2 2.5 -4.3-4.5 12.1-7.8 12.1-7.8v-49.5L295.5 180z"/>
    <path fill="none" stroke="#957A5B" stroke-linecap="round" stroke-linejoin="round" stroke-miterlimit="10" d="M271.9 231.9c0 0-0.7-2.1 2.2-2.4"/>
    <path fill="none" stroke="#957A5B" stroke-linecap="round" stroke-linejoin="round" stroke-miterlimit="10" d="M274.1 232.7c0 0-0.7-2.1 2.2-2.4"/>
  </g>
  <g>
    <path fill="#CCB08D" d="M180.5 197.9v49.5c0 0 19.8 7 24.2 2.5s-12.1-7.8-12.1-7.8v-49.5L180.5 197.9z"/>
    <path fill="none" stroke="#957A5B" stroke-linecap="round" stroke-linejoin="round" stroke-miterlimit="10" d="M204.2 249.8c0 0 0.7-2.1-2.2-2.4"/>
    <path fill="none" stroke="#957A5B" stroke-linecap="round" stroke-linejoin="round" stroke-miterlimit="10" d="M202 250.6c0 0 0.7-2.1-2.2-2.4"/>
  </g>
  <polygon fill="#FFFFFF" points="268.8 61.9 212.8 9.2 212.8 29.7 259.3 72.6 "/>
  <polygon fill="#E5E8BF" points="159.4 114.4 137.5 132 140.8 149.2 159.4 134.4 "/>
  <path fill="#E5E8BF" d="M167.6 76.5c0 0-10.2 5.2-11.2 14.2s0 66.2 0 66.2l-4.9 30.2 -1.1 6.9c0 0 19.3 5.9 24.8 4.8 5.4-1.1 27-3 27-3l3.4-3.4 -5.6-25.3 -1.5-61.2 -2.2-21.8c0 0-3.3-5.1-10.6-7.7 -2.4-0.9-5 15-13.7 15.8C162.3 93.3 167.6 76.5 167.6 76.5z"/>
  <polygon fill="#CFD0D0" points="259.2 54 257.2 59 268.6 61 270.7 54 "/>
  <polygon fill="#FFCD05" points="155.8 129.7 190.3 130.2 190.8 137.8 156.1 139.7 "/>
  <g>
    <g opacity="0.15">
      <path fill="#010101" d="M189.3 149v-16.8L192 120l-5.1-20c0 0-1.6-12 2.6-13.5 4.1-1.5 6.3 0.6 7 1.7 0.7 1.1 6.6 11.6 6.9 27.1 0.3 15.5-1.1 31.7-1.1 31.7L189.3 149z"/>
    </g>
    <g>
      <path fill="#E5E8BF" d="M190.3 147v-16.8L193 118l-5.1-20c0 0-1.6-12 2.6-13.5 4.1-1.5 6.3 0.6 7 1.7 0.7 1.1 6.6 11.6 6.9 27.1 0.3 15.5-1.1 31.7-1.1 31.7L190.3 147z"/>
    </g>
  </g>
  <path fill="#CCB08D" d="M284.3 62.5c0 0-5.7 0.1-6.7-2.4s-1.2-15.8-1.2-15.8l-8.3 9.1c0.2 2.2 0.2 4.7-0.5 6.3 -0.9 2.1-2.3 2.8-2.3 2.8l-2.6 13.6 8.7 3.1 11.5-9.4L284.3 62.5z"/>
  <path fill="#FFFFFF" d="M266 61.8c0 0-10.2 5.3-11.2 14.3s0 87.3 0 87.3l-4.5 37.6c0 0 17.8 5.4 23.2 4.4 5.4-1.1 25-2 25-2l3.4-3.4 -3.6-26.3 -3.5-82.3 -0.2-21.8c0 0-3.3-5.1-10.6-7.7 -2.4-0.9-13.7 15.8-13.7 15.8L266 61.8z"/>
  <polygon fill="#CF2627" points="254.2 121 288.7 121.5 289.2 129.1 254.5 131 "/>
  <g>
    <path fill="#CCB08D" d="M201.4 145.2l-10.1 1.6c-2.5 14.4 7.1 20.3 7.1 20.3s7.2-2.4 7.6-6.4C199.8 153.9 200.8 147.3 201.4 145.2z"/>
    <path fill="none" stroke="#957A5B" stroke-linejoin="round" stroke-miterlimit="10" d="M200.3 166.3c-1.5-1.8-5.1-3.9-6.1-8.9"/>
    <path fill="none" stroke="#957A5B" stroke-linejoin="round" stroke-miterlimit="10" d="M202.7 165.1c0 0-5.5-4.2-6-9"/>
    <path fill="none" stroke="#957A5B" stroke-linejoin="round" stroke-miterlimit="10" d="M204.5 163.7c0 0-4.8-4.5-5-9.6"/>
  </g>
  <path fill="#CCB08D" d="M123.9 143.7c-0.4-1.5 4.4-3.7 5.6-3.5 1.2 0.2 5.6 9.2 5 10.2 -0.6 1.1-2.9 2.8-5.6 3.1C126.3 153.8 124.3 145.2 123.9 143.7z"/>
  <line fill="none" stroke="#957A5B" stroke-linejoin="round" stroke-miterlimit="10" x1="124.6" y1="146.2" x2="131.8" y2="142.4"/>
  <line fill="none" stroke="#957A5B" stroke-linejoin="round" stroke-miterlimit="10" x1="125.6" y1="149.4" x2="132.8" y2="145.5"/>
  <line fill="none" stroke="#957A5B" stroke-linejoin="round" stroke-miterlimit="10" x1="127" y1="152.1" x2="134.2" y2="148.2"/>
  <path fill="#CCB08D" d="M129.7 129.7c-1.1 0.1-0.4 2.5-0.4 2.5l7.9 17.3 3.2-2.3 -2.3-11.8 -3.2 0.5 -2.9-4.1C132.1 131.8 130.5 129.6 129.7 129.7z"/>
  <g>
    <path fill="#CCB08D" d="M161.8 35.6c0 0-11 27.2 1 32.8 11.9 5.6 20.2-16 20.2-16l3.4-6.4 -10.7-11.3L161.8 35.6z"/>
    <path fill="#010101" d="M178.3 48.1l0.2 7.4 -4.9 7c0 0-2.2-7.7-7.2-7.3 -5.1 0.3-9 4.3-9 4.3s-1 9.8 7.5 11.5 15.1-12.5 15.1-12.5l-0.8-11.2L178.3 48.1z"/>
    <path fill="#CCB08D" d="M160.2 60.3c0 0 2.3-3.5 5.4-2.9 3.1 0.6 4.7 2.9 5.1 6.1 0.4 3.2-4.8 2.9-4.8 2.9l-0.6-1.8 -1.6 1.6C163.5 66.1 160.5 64.4 160.2 60.3z"/>
    <path fill="#010101" d="M162.5 60.1l6.3 0.7C168.8 60.8 166.7 67 162.5 60.1z"/>
    <path fill="#9F743C" d="M166.5 43.5c0 0-4.7 5.1-4 8.4 0.6 3.3 4.6 1.9 4.6 1.9L166.5 43.5z"/>
    <ellipse transform="matrix(-0.9938 -0.1112 0.1112 -0.9938 334.9806 110.2228)" fill="#010101" cx="170.6" cy="45.8" rx="1" ry="1.8"/>
    <ellipse transform="matrix(-0.9938 -0.1112 0.1112 -0.9938 318.8253 103.952)" fill="#010101" cx="162.3" cy="43.1" rx="1" ry="1.8"/>
    <path fill="#010101" d="M179.1 60c0 0 1.7-0.4 4.8-1.5 3.1-1 3.6-1.6 3.6-1.6l2.2-2.7 -0.7-2.9 1.5-4.1 -0.3-5.4 -0.9-0.1 -0.4-4.6 -2.4-4.7 -1.3-0.1 -4.4-3.5 -4.2-0.5 -1.8 0.8 -2.5-1.3 -3.6 0.4 -3.2-1.2 -5.7 4.5 -0.4 3.3 1.1 2.2 3.7 1.2 4.4 0.3 2.8-0.4 0.5 1.6 0.7 1.9 2.8 0.6 1.8-0.4 -0.4 3.2 0.3 4.5 0.8 0.9 2.2-2 2.7-0.8 0.7 2 -0.8 3 -1.4 3.1L179.1 60z"/>
  </g>
  <g>
    <path fill="#CCB08D" d="M263.5 21.2c0 0-12.8 26.4-1.3 32.8 11.5 6.4 21.2-14.5 21.2-14.5l3.8-6.1 -9.9-12L263.5 21.2z"/>
    <path fill="#68481C" d="M279.1 34.8l-0.3 7.4 -5.4 6.6c0 0-1.6-7.8-6.7-7.8s-9.3 3.6-9.3 3.6 -1.7 9.7 6.7 12c8.3 2.3 16-11.4 16-11.4l0-11.2L279.1 34.8z"/>
    <path fill="#CCB08D" d="M260.2 45.8c0 0 2.5-3.3 5.5-2.5 3 0.8 4.5 3.2 4.7 6.4s-5 2.5-5 2.5l-0.5-1.9 -1.7 1.5C263.1 51.8 260.2 49.8 260.2 45.8z"/>
    <path fill="#010101" d="M262.5 45.7l6.3 1.2C268.7 46.9 266.2 52.9 262.5 45.7z"/>
    <path fill="#9F743C" d="M267.7 29.5c0 0-5.6 2.1-5.2 5.4 0.4 3.3 5.1 4.9 5.1 4.9L267.7 29.5z"/>
    <ellipse transform="matrix(-0.9836 -0.1806 0.1806 -0.9836 532.89 112.4275)" fill="#010101" cx="271.6" cy="32" rx="1" ry="1.8"/>
    <ellipse transform="matrix(-0.9836 -0.1806 0.1806 -0.9836 517.5221 104.5155)" fill="#010101" cx="263.5" cy="28.7" rx="1" ry="1.8"/>
  </g>
  <path fill="#BFC2A0" d="M270.2 77.7c0 0 14.4 38.9 18.5 43.8 4.1 4.9 0.5-1.6 0.5-1.6L270.2 77.7z"/>
  <g>
    <g opacity="0.15">
      <path fill="#010101" d="M287.7 134.3v-16.8l2.6-12.2 -5.1-20c0 0-1.6-12 2.6-13.5 4.1-1.5 6.3 0.6 7 1.7s6.6 11.6 6.9 27.1c0.3 15.5-1.1 31.8-1.1 31.8L287.7 134.3z"/>
    </g>
    <g>
      <path fill="#FFFFFF" d="M288.7 132.3v-16.8l2.6-12.2 -5.1-20c0 0-1.6-12 2.6-13.5 4.1-1.5 6.3 0.6 7 1.7s6.6 11.6 6.9 27.1c0.3 15.5-1.1 31.8-1.1 31.8L288.7 132.3z"/>
    </g>
  </g>
  <g>
    <path fill="#CCB08D" d="M300.6 130.5l-10.1 1.6c-2.5 14.4 7.1 20.3 7.1 20.3s7.2-2.4 7.6-6.4C299 139.1 300 132.5 300.6 130.5z"/>
    <path fill="none" stroke="#957A5B" stroke-linejoin="round" stroke-miterlimit="10" d="M299.5 151.5c-1.5-1.8-5.1-3.9-6.1-8.9"/>
    <path fill="none" stroke="#957A5B" stroke-linejoin="round" stroke-miterlimit="10" d="M301.9 150.3c0 0-5.5-4.2-6-9"/>
    <path fill="none" stroke="#957A5B" stroke-linejoin="round" stroke-miterlimit="10" d="M303.7 148.9c0 0-4.8-4.5-5-9.6"/>
  </g>
  <g>
    <path fill="#FFFFFF" d="M254.7 23.4l6.7-5.2 2.1-3.8c0 0 4.6-14.8 15.8-8.5s9 15.4 9 15.4l-1.1 9.1 6.4 27.2 -20 3.4 3.5-15.3 0.9-14.4L254.7 23.4z"/>
    <polygon fill="#CF2627" points="287.5 26.6 259.3 19.9 262.3 16.1 288.6 21 "/>
  </g>
</svg>
