<svg viewBox="0 0 109 33" xmlns="http://www.w3.org/2000/svg"><g fill="#fff" fill-rule="evenodd"><path d="m.71 1.15v.93h2.42l-1.31 5.2h4.71l-.23 1.49h-5.79v.93h9v-.93h-2.28l.77-5.27h-4.28l.36-1.42h5.19v-.93h-8.56m5.96 5.24h-3.69l.51-2h3.5l-.32 2m14.74-5.56v1.82h-.9v.87h.9v.37c-.02 2.33-.47 4.08-1.37 5.24v-.47c-.53.06-1.1.12-1.72.18v-.62h1.73v-.78h-1.73v-.53h1.76v-3.19h-1.76v-.48h1.91v-.78h-1.91v-.59c.69-.07 1.3-.17 1.84-.31l-.42-.72c-1.15.26-2.56.4-4.24.4l.25.75c.59 0 1.15-.02 1.67-.05v.52h-1.96v.78h1.96v.48h-1.75v3.19h1.75v.53h-1.72v.78h1.72v.7c-.65.04-1.33.09-2.05.13l.12.84c1.65-.1 3.13-.24 4.43-.4l.57.5c1.18-1.28 1.78-3.32 1.81-6.1v-.37h1.09c-.02 2.79-.06 4.43-.12 4.93-.06.44-.25.66-.58.66-.3 0-.66-.02-1.06-.05l.23.84c.46.02.78.04.96.04.79 0 1.23-.36 1.32-1.08.09-.78.14-2.85.14-6.21h-1.98v-1.82h-.89m-2.19 5.38h-.96v-.58h.96v.58m-1.74 0h-.95v-.58h.95v.58m-.95-1.22v-.58h.95v.58h-.95m1.73-.58h.96v.58h-.96v-.58" transform="translate(41 22)"/><g><path d="m11.319.806l-4.159 6.615-4.115-6.615h-3.045l5.837 9.05v5.89h2.605v-5.954l5.837-8.984z"/><path d="m17.933 6.504c-2.037 0-3.339 1.622-3.339 3.607 0 2.01 1.407 3.649 3.381 3.649 2.058 0 3.36-1.622 3.36-3.607 0-2.01-1.407-3.649-3.402-3.649m0 9.496c-3.381 0-5.88-2.624-5.88-5.847 0-3.244 2.52-5.911 5.922-5.911 3.402 0 5.901 2.625 5.901 5.869 0 3.223-2.52 5.89-5.943 5.89"/><path d="m32.905 4.476h2.541v11.268h-2.541v-1.75c-.714 1.067-1.743 1.985-3.465 1.985-2.499 0-3.948-1.707-3.948-4.332v-7.17h2.541v6.402c0 1.75.861 2.753 2.373 2.753 1.469 0 2.499-1.045 2.499-2.795v-6.359"/><path d="m48.529.806h2.791l-6.11 15.05h-2.267l-6.111-15.05h2.856l4.432 11.481z"/><path d="m58.57 9.32c-.168-1.665-1.134-2.966-2.814-2.966-1.554 0-2.645 1.216-2.877 2.966h5.691m-2.478 4.567c1.239 0 2.121-.47 3-1.345l1.491 1.345c-1.05 1.28-2.499 2.112-4.536 2.112-3.213 0-5.691-2.368-5.691-5.868 0-3.244 2.247-5.89 5.418-5.89 3.528 0 5.313 2.817 5.313 6.082 0 .235-.021.448-.042.704h-8.148c.294 1.835 1.554 2.86 3.192 2.86"/><path d="m65.35 15.744h-2.541v-11.268h2.541v2.539c.693-1.686 1.974-2.838 3.927-2.753v2.731h-.147c-2.226 0-3.78 1.472-3.78 4.46v4.289"/><path d="m74.861 15.958c-1.575 0-3.318-.576-4.704-1.686l1.134-1.75c1.197.917 2.499 1.387 3.633 1.387 1.092 0 1.722-.47 1.722-1.216v-.043c0-.875-1.176-1.174-2.478-1.579-1.637-.47-3.465-1.153-3.465-3.308v-.043c0-2.134 1.743-3.436 3.948-3.436 1.386 0 2.898.491 4.074 1.28l-1.01 1.835c-1.071-.662-2.205-1.067-3.129-1.067-.987 0-1.554.47-1.554 1.131v.042c0 .811 1.197 1.153 2.499 1.579 1.617.512 3.444 1.259 3.444 3.287v.043c0 2.369-1.806 3.543-4.116 3.543"/><path d="m80.87 4.476h2.541v11.268h-2.541v-11.268m-.105-4.183h2.73v2.454h-2.73v-2.454"/><path d="m91.16 6.504c-2.037 0-3.339 1.622-3.339 3.607 0 2.01 1.407 3.649 3.381 3.649 2.058 0 3.36-1.622 3.36-3.607 0-2.01-1.407-3.649-3.402-3.649m0 9.496c-3.381 0-5.88-2.624-5.88-5.847 0-3.244 2.52-5.911 5.922-5.911 3.402 0 5.901 2.625 5.901 5.869 0 3.223-2.52 5.89-5.943 5.89"/><path d="m101.38 15.744h-2.541v-11.268h2.541v1.75c.714-1.067 1.743-1.985 3.465-1.985 2.499 0 3.948 1.707 3.948 4.332v7.17h-2.541v-6.402c0-1.75-.861-2.753-2.373-2.753-1.469 0-2.499 1.045-2.499 2.795v6.359"/></g></g></svg>